<?xml version="1.0" encoding="UTF-8"?>
<svg width="165px" height="41px" viewBox="0 0 165 41" version="1.1" xmlns="http://www.w3.org/2000/svg" xmlns:xlink="http://www.w3.org/1999/xlink">
    <title>Export</title>
    <g id="Export" stroke="none" stroke-width="1" fill="none" fill-rule="evenodd">
        <g id="logo-gdpr-eu-white" fill-rule="nonzero">
            <g id="g1056" transform="translate(0.632100, 0.189120)">
                <g id="g1022" fill="#FFFFFF">
                    <polygon id="rect1018" points="0.1758009 0.0666831 59.7763474 0.0666831 59.7763474 40.5493869 0.1758009 40.5493869"></polygon>
                </g>
                <g id="g1028" transform="translate(1.212420, 1.010350)" fill="#034EA2">
                    <polygon id="rect1024" points="0.1091178 0.1656974 57.4161698 0.1656974 57.4161698 38.3710723 0.1091178 38.3710723"></polygon>
                </g>
                <g id="g1054" transform="translate(15.357320, 5.657960)" fill="#FFF100">
                    <polygon id="polygon1030" points="16.5838849 1.5337113 15.0703806 1.5337113 14.6056196 0.0889108 14.1428793 1.5337113 12.629375 1.5337113 13.8579606 2.4147365 13.397241 3.8433714 14.6056196 2.9603255 15.8160189 3.8433714 15.3552993 2.4147365"></polygon>
                    <polygon id="polygon1032" points="10.325777 3.2149337 8.810252 3.2149337 8.3475117 1.7681125 7.8847714 3.2149337 6.3712671 3.2149337 7.597832 4.0959589 7.1391331 5.5245938 8.3475117 4.6415479 9.5558903 5.5245938 9.0971914 4.0959589"></polygon>
                    <polygon id="polygon1034" points="2.5602269 10.1136035 3.7686055 9.2305576 4.9790048 10.1136035 4.5182852 8.6849686 5.7468708 7.8039434 4.2333665 7.8039434 3.7686055 6.3571222 3.3058652 7.8039434 1.7923609 7.8039434 3.0209465 8.6849686"></polygon>
                    <polygon id="polygon1036" points="2.5521441 14.0539685 2.0894038 12.6071473 1.6266635 14.0559892 0.1131592 14.0539685 1.3397241 14.9349937 0.8810252 16.3636286 2.0894038 15.4805827 3.2977824 16.3636286 2.8390835 14.9349937 4.0656484 14.0539685"></polygon>
                    <polygon id="polygon1038" points="3.0209465 21.2052258 2.5602269 22.63184 3.7686055 21.7467734 4.9790048 22.63184 4.5182852 21.2052258 5.7468708 20.3221799 4.2333665 20.3221799 3.7686055 18.8753587 3.3058652 20.3242006 1.7923609 20.3221799"></polygon>
                    <polygon id="polygon1040" points="7.6079355 25.7922148 7.1492366 27.218829 8.3576152 26.3378038 9.5659938 27.218829 9.1072949 25.7922148 10.3338598 24.9091689 8.8203555 24.9091689 8.3576152 23.4643684 7.8948749 24.9111896 6.3813706 24.9091689"></polygon>
                    <polygon id="polygon1042" points="13.8579606 27.4552509 13.3992617 28.8818651 14.6076403 27.9988192 15.8160189 28.8818651 15.3552993 27.4552509 16.5838849 26.572205 15.0703806 26.572205 14.6076403 25.1253838 14.1449 26.5742257 12.6313957 26.572205"></polygon>
                    <polygon id="polygon1044" points="20.1079857 25.7922148 19.6492868 27.218829 20.8576654 26.3378038 22.066044 27.218829 21.6053244 25.7922148 22.83391 24.9091689 21.3204057 24.9091689 20.8576654 23.4643684 20.3929044 24.9111896 18.8814208 24.9091689"></polygon>
                    <polygon id="polygon1046" points="24.6969954 21.2052258 24.2362758 22.63184 25.4446544 21.7467734 26.6550537 22.63184 26.1943341 21.2052258 27.420899 20.3221799 25.9094154 20.3221799 25.4446544 18.8753587 24.9819141 20.3242006 23.4684098 20.3221799"></polygon>
                    <polygon id="polygon1048" points="25.1294252 14.0357822 26.3580108 14.9188281 25.8993119 16.3454423 27.1056698 15.4623964 28.3160691 16.3454423 27.8553495 14.9188281 29.0839351 14.0357822 27.5704308 14.0357822 27.1056698 12.588961 26.6429295 14.0378029"></polygon>
                    <polygon id="polygon1050" points="27.420899 7.7857571 25.9094154 7.7857571 25.4446544 6.3409566 24.9819141 7.7877778 23.4684098 7.7857571 24.6969954 8.6667823 24.2362758 10.0933965 25.4446544 9.2123713 26.6550537 10.0933965 26.1943341 8.6667823"></polygon>
                    <polygon id="polygon1052" points="19.6654524 5.5245938 20.8758517 4.6415479 22.0842303 5.5245938 21.6255314 4.0979796 22.854117 3.2149337 21.338592 3.2149337 20.8758517 1.7701332 20.4131114 3.2169544 18.8975864 3.2149337 20.126172 4.0979796"></polygon>
                </g>
            </g>
        </g>
        <path d="M70.9343262,9.5 L70.9343262,4.11279297 L72.876709,4.11279297 L72.876709,3.45703125 L68.2033691,3.45703125 L68.2033691,4.11279297 L70.1416016,4.11279297 L70.1416016,9.5 L70.9343262,9.5 Z M74.3356543,9.5 L74.3356543,6.30004883 C74.4407975,6.08422852 74.5874447,5.90991211 74.7755957,5.77709961 C74.9637467,5.64428711 75.182334,5.57788086 75.4313574,5.57788086 C75.7384863,5.57788086 75.9646826,5.65535482 76.1099463,5.81030273 C76.25521,5.96525065 76.3292253,6.20458984 76.3319922,6.52832031 L76.3319922,6.52832031 L76.3319922,9.5 L77.0998145,9.5 L77.0998145,6.5324707 C77.0915137,5.46166992 76.6128353,4.92626953 75.6637793,4.92626953 C75.1186947,4.92626953 74.6759863,5.13517253 74.3356543,5.55297852 L74.3356543,5.55297852 L74.3356543,3.125 L73.567832,3.125 L73.567832,9.5 L74.3356543,9.5 Z M78.6210156,4.25390625 C78.7704297,4.25390625 78.8838737,4.21240234 78.9613477,4.12939453 C79.0388216,4.04638672 79.0775586,3.94262695 79.0775586,3.81811523 C79.0775586,3.69360352 79.0388216,3.58846029 78.9613477,3.50268555 C78.8838737,3.41691081 78.7704297,3.37402344 78.6210156,3.37402344 C78.4716016,3.37402344 78.3588493,3.41691081 78.2827588,3.50268555 C78.2066683,3.58846029 78.168623,3.69360352 78.168623,3.81811523 C78.168623,3.94262695 78.2066683,4.04638672 78.2827588,4.12939453 C78.3588493,4.21240234 78.4716016,4.25390625 78.6210156,4.25390625 Z M78.9987012,9.5 L78.9987012,5.00927734 L78.2308789,5.00927734 L78.2308789,9.5 L78.9987012,9.5 Z M81.7940723,9.58300781 C82.3059538,9.58300781 82.7223763,9.46195475 83.0433398,9.21984863 C83.3643034,8.97774251 83.5247852,8.65608724 83.5247852,8.25488281 C83.5247852,8.01416016 83.4673714,7.81009928 83.3525439,7.6427002 C83.2377165,7.47530111 83.0613249,7.33211263 82.8233691,7.21313477 C82.5854134,7.0941569 82.2748258,6.9917806 81.8916064,6.90600586 C81.508387,6.82023112 81.2434538,6.73030599 81.0968066,6.63623047 C80.9501595,6.54215495 80.8768359,6.40242513 80.8768359,6.21704102 C80.8768359,6.02058919 80.9556934,5.86149089 81.1134082,5.73974609 C81.271123,5.6180013 81.4897103,5.55712891 81.7691699,5.55712891 C82.0403288,5.55712891 82.2651416,5.6332194 82.4436084,5.78540039 C82.6220752,5.93758138 82.7113086,6.1188151 82.7113086,6.32910156 L82.7113086,6.32910156 L83.4832812,6.32910156 C83.4832812,5.91959635 83.3248747,5.58341471 83.0080615,5.32055664 C82.6912484,5.05769857 82.2782845,4.92626953 81.7691699,4.92626953 C81.2849577,4.92626953 80.8872119,5.05354818 80.5759326,5.30810547 C80.2646533,5.56266276 80.1090137,5.87394206 80.1090137,6.24194336 C80.1090137,6.46329753 80.1636605,6.65421549 80.2729541,6.81469727 C80.3822477,6.97517904 80.5510303,7.11352539 80.7793018,7.22973633 C81.0075732,7.34594727 81.3160856,7.44555664 81.7048389,7.52856445 C82.0935921,7.61157227 82.3661344,7.71048991 82.5224658,7.82531738 C82.6787972,7.94014486 82.7569629,8.10131836 82.7569629,8.30883789 C82.7569629,8.50528971 82.669113,8.66231283 82.4934131,8.77990723 C82.3177132,8.89750163 82.0845996,8.95629883 81.7940723,8.95629883 C81.4786426,8.95629883 81.224777,8.88090007 81.0324756,8.73010254 C80.8401741,8.57930501 80.7371061,8.37524414 80.7232715,8.11791992 L80.7232715,8.11791992 L79.9554492,8.11791992 C79.9554492,8.38354492 80.0336149,8.63049316 80.1899463,8.85876465 C80.3462777,9.08703613 80.5627897,9.2648112 80.8394824,9.39208984 C81.1161751,9.51936849 81.4343717,9.58300781 81.7940723,9.58300781 Z M87.2270996,11.2265625 L87.2270996,9.06420898 C87.5397624,9.41007487 87.9686361,9.58300781 88.5137207,9.58300781 C89.0477376,9.58300781 89.4710775,9.37410482 89.7837402,8.95629883 C90.096403,8.53849284 90.2527344,7.98787435 90.2527344,7.30444336 L90.2527344,7.30444336 L90.2527344,7.23388672 C90.2527344,6.50895182 90.0957113,5.94311523 89.781665,5.53637695 C89.4676188,5.12963867 89.0408203,4.92626953 88.5012695,4.92626953 C87.9451172,4.92626953 87.5107096,5.11995443 87.1980469,5.50732422 L87.1980469,5.50732422 L87.1606934,5.00927734 L86.4592773,5.00927734 L86.4592773,11.2265625 L87.2270996,11.2265625 Z M88.2812988,8.95629883 C87.8081543,8.95629883 87.4567546,8.75154622 87.2270996,8.34204102 L87.2270996,8.34204102 L87.2270996,6.19628906 C87.4595215,5.78401693 87.8081543,5.57788086 88.272998,5.57788086 C88.6493001,5.57788086 88.9453613,5.72452799 89.1611816,6.01782227 C89.3770019,6.31111654 89.4849121,6.7109375 89.4849121,7.21728516 C89.4849121,7.79280599 89.3763102,8.22652181 89.1591064,8.51843262 C88.9419027,8.81034342 88.6493001,8.95629883 88.2812988,8.95629883 Z M91.9108984,9.5 L91.9108984,6.3125 C92.0907487,5.8836263 92.4324642,5.66918945 92.9360449,5.66918945 C93.0716243,5.66918945 93.1975195,5.6788737 93.3137305,5.69824219 L93.3137305,5.69824219 L93.3137305,4.984375 C93.2362565,4.94563802 93.1228125,4.92626953 92.9733984,4.92626953 C92.5113216,4.92626953 92.154388,5.12687174 91.9025976,5.52807617 L91.9025976,5.52807617 L91.8901465,5.00927734 L91.1430762,5.00927734 L91.1430762,9.5 L91.9108984,9.5 Z M95.6940625,9.58300781 C96.0980338,9.58300781 96.4556592,9.48616536 96.7669385,9.29248047 C97.0782178,9.09879557 97.317557,8.82832845 97.484956,8.4810791 C97.6523551,8.13382975 97.7360547,7.74161784 97.7360547,7.30444336 L97.7360547,7.30444336 L97.7360547,7.25048828 C97.7360547,6.5476888 97.5472119,5.98461914 97.1695264,5.5612793 C96.7918408,5.13793945 96.2972526,4.92626953 95.6857617,4.92626953 C95.2900911,4.92626953 94.9379997,5.02172852 94.6294873,5.21264648 C94.3209749,5.40356445 94.0802523,5.67472331 93.9073193,6.02612305 C93.7343864,6.37752279 93.6479199,6.77319336 93.6479199,7.21313477 L93.6479199,7.21313477 L93.6479199,7.26708984 C93.6479199,7.96435547 93.8367627,8.5246582 94.2144482,8.94799805 C94.5921338,9.37133789 95.0853385,9.58300781 95.6940625,9.58300781 Z M95.6940625,8.95629883 C95.3066927,8.95629883 94.9974886,8.8055013 94.7664502,8.50390625 C94.5354118,8.2023112 94.4198926,7.80249023 94.4198926,7.30444336 C94.4198926,6.74275716 94.5361035,6.31111654 94.7685254,6.00952148 C95.0009473,5.70792643 95.3066927,5.55712891 95.6857617,5.55712891 C96.0731315,5.55712891 96.3837191,5.71000163 96.6175244,6.01574707 C96.8513297,6.32149251 96.9682324,6.72062174 96.9682324,7.21313477 C96.9682324,7.76375326 96.8534049,8.19193522 96.62375,8.49768066 C96.394095,8.80342611 96.0841992,8.95629883 95.6940625,8.95629883 Z M99.0082324,4.25390625 C99.1576465,4.25390625 99.2710905,4.21240234 99.3485644,4.12939453 C99.4260384,4.04638672 99.4647754,3.94262695 99.4647754,3.81811523 C99.4647754,3.69360352 99.4260384,3.58846029 99.3485644,3.50268555 C99.2710905,3.41691081 99.1576465,3.37402344 99.0082324,3.37402344 C98.8615853,3.37402344 98.7502165,3.41760254 98.674126,3.50476074 C98.5980355,3.59191895 98.5599902,3.69637044 98.5599902,3.81811523 C98.5599902,3.94262695 98.5973437,4.04638672 98.6720508,4.12939453 C98.7467578,4.21240234 98.8588183,4.25390625 99.0082324,4.25390625 Z M98.2321094,11.3137207 C99.0151497,11.3137207 99.4066699,10.8820801 99.4066699,10.0187988 L99.4066699,10.0187988 L99.4066699,5.00927734 L98.6388476,5.00927734 L98.6388476,10.0354004 C98.6388476,10.2650553 98.5938851,10.4262288 98.50396,10.5189209 C98.4140348,10.611613 98.2832975,10.657959 98.111748,10.657959 C97.9678678,10.657959 97.8516569,10.6468913 97.7631152,10.6247559 L97.7631152,10.6247559 L97.7631152,11.2390137 C97.9069954,11.2888184 98.0633268,11.3137207 98.2321094,11.3137207 Z M102.422012,9.58300781 C103.174616,9.58300781 103.739069,9.29386393 104.115371,8.71557617 L104.115371,8.71557617 L103.646377,8.3503418 C103.505264,8.53295898 103.340631,8.67960612 103.15248,8.7902832 C102.964329,8.90096029 102.734674,8.95629883 102.463516,8.95629883 C102.08168,8.95629883 101.766942,8.82002767 101.519302,8.54748535 C101.271662,8.27494303 101.142308,7.91731771 101.13124,7.47460938 L101.13124,7.47460938 L104.173477,7.47460938 L104.173477,7.1550293 C104.173477,6.43839518 104.011611,5.88777669 103.687881,5.50317383 C103.36415,5.11857096 102.910374,4.92626953 102.326553,4.92626953 C101.969619,4.92626953 101.63828,5.02518717 101.332534,5.22302246 C101.026789,5.42085775 100.788833,5.69478353 100.618667,6.0447998 C100.448501,6.39481608 100.363418,6.79256185 100.363418,7.23803711 L100.363418,7.23803711 L100.363418,7.37915039 C100.363418,8.04874674 100.554336,8.5834554 100.936172,8.98327637 C101.318008,9.38309733 101.813288,9.58300781 102.422012,9.58300781 Z M103.405654,6.84375 L101.156143,6.84375 C101.205947,6.43701172 101.335993,6.1208903 101.546279,5.89538574 C101.756566,5.66988118 102.016657,5.55712891 102.326553,5.55712891 C102.647516,5.55712891 102.902074,5.66434733 103.090225,5.87878418 C103.278376,6.09322103 103.383519,6.39550781 103.405654,6.78564453 L103.405654,6.78564453 L103.405654,6.84375 Z M106.77793,9.58300781 C107.082292,9.58300781 107.370744,9.51383464 107.643286,9.37548828 C107.915828,9.23714193 108.133724,9.05175781 108.296973,8.81933594 C108.460221,8.58691406 108.548763,8.34204102 108.562598,8.0847168 L108.562598,8.0847168 L107.836279,8.0847168 C107.814144,8.33374023 107.7007,8.54125977 107.495947,8.70727539 C107.291195,8.87329102 107.051855,8.95629883 106.77793,8.95629883 C106.382259,8.95629883 106.077897,8.81656901 105.864844,8.53710938 C105.65179,8.25764974 105.545264,7.85921224 105.545264,7.34179688 L105.545264,7.34179688 L105.545264,7.1965332 C105.545264,6.6652832 105.652482,6.25923665 105.866919,5.97839355 C106.081356,5.69755046 106.383643,5.55712891 106.773779,5.55712891 C107.064307,5.55712891 107.308488,5.6505127 107.506323,5.83728027 C107.704159,6.02404785 107.814144,6.26269531 107.836279,6.55322266 L107.836279,6.55322266 L108.562598,6.55322266 C108.540462,6.07177734 108.362687,5.68025716 108.029272,5.37866211 C107.695858,5.07706706 107.27736,4.92626953 106.773779,4.92626953 C106.364274,4.92626953 106.009416,5.02034505 105.709204,5.20849609 C105.408993,5.39664714 105.178646,5.66088867 105.018164,6.0012207 C104.857682,6.34155273 104.777441,6.73030599 104.777441,7.16748047 L104.777441,7.16748047 L104.777441,7.29614258 C104.777441,8.00447591 104.957983,8.56270345 105.319067,8.9708252 C105.680151,9.37894694 106.166439,9.58300781 106.77793,9.58300781 Z M110.652402,9.58300781 C110.84332,9.58300781 111.039772,9.55533854 111.241758,9.5 L111.241758,9.5 L111.241758,8.87744141 C111.08681,8.91064453 110.965065,8.92724609 110.876523,8.92724609 C110.696673,8.92724609 110.569395,8.88228353 110.494687,8.7923584 C110.41998,8.70243327 110.382627,8.56754557 110.382627,8.38769531 L110.382627,8.38769531 L110.382627,5.6027832 L111.221006,5.6027832 L111.221006,5.00927734 L110.382627,5.00927734 L110.382627,3.921875 L109.614805,3.921875 L109.614805,5.00927734 L108.797178,5.00927734 L108.797178,5.6027832 L109.614805,5.6027832 L109.614805,8.38769531 C109.614805,8.76953125 109.701963,9.06420898 109.876279,9.27172852 C110.050596,9.47924805 110.309303,9.58300781 110.652402,9.58300781 Z M114.508281,4.25390625 C114.657695,4.25390625 114.771139,4.21240234 114.848613,4.12939453 C114.926087,4.04638672 114.964824,3.94262695 114.964824,3.81811523 C114.964824,3.69360352 114.926087,3.58846029 114.848613,3.50268555 C114.771139,3.41691081 114.657695,3.37402344 114.508281,3.37402344 C114.358867,3.37402344 114.246115,3.41691081 114.170024,3.50268555 C114.093934,3.58846029 114.055889,3.69360352 114.055889,3.81811523 C114.055889,3.94262695 114.093934,4.04638672 114.170024,4.12939453 C114.246115,4.21240234 114.358867,4.25390625 114.508281,4.25390625 Z M114.885967,9.5 L114.885967,5.00927734 L114.118145,5.00927734 L114.118145,9.5 L114.885967,9.5 Z M117.681338,9.58300781 C118.193219,9.58300781 118.609642,9.46195475 118.930605,9.21984863 C119.251569,8.97774251 119.412051,8.65608724 119.412051,8.25488281 C119.412051,8.01416016 119.354637,7.81009928 119.23981,7.6427002 C119.124982,7.47530111 118.94859,7.33211263 118.710635,7.21313477 C118.472679,7.0941569 118.162091,6.9917806 117.778872,6.90600586 C117.395653,6.82023112 117.130719,6.73030599 116.984072,6.63623047 C116.837425,6.54215495 116.764102,6.40242513 116.764102,6.21704102 C116.764102,6.02058919 116.842959,5.86149089 117.000674,5.73974609 C117.158389,5.6180013 117.376976,5.55712891 117.656436,5.55712891 C117.927594,5.55712891 118.152407,5.6332194 118.330874,5.78540039 C118.509341,5.93758138 118.598574,6.1188151 118.598574,6.32910156 L118.598574,6.32910156 L119.370547,6.32910156 C119.370547,5.91959635 119.21214,5.58341471 118.895327,5.32055664 C118.578514,5.05769857 118.16555,4.92626953 117.656436,4.92626953 C117.172223,4.92626953 116.774478,5.05354818 116.463198,5.30810547 C116.151919,5.56266276 115.996279,5.87394206 115.996279,6.24194336 C115.996279,6.46329753 116.050926,6.65421549 116.16022,6.81469727 C116.269513,6.97517904 116.438296,7.11352539 116.666567,7.22973633 C116.894839,7.34594727 117.203351,7.44555664 117.592104,7.52856445 C117.980858,7.61157227 118.2534,7.71048991 118.409731,7.82531738 C118.566063,7.94014486 118.644228,8.10131836 118.644228,8.30883789 C118.644228,8.50528971 118.556379,8.66231283 118.380679,8.77990723 C118.204979,8.89750163 117.971865,8.95629883 117.681338,8.95629883 C117.365908,8.95629883 117.112043,8.88090007 116.919741,8.73010254 C116.72744,8.57930501 116.624372,8.37524414 116.610537,8.11791992 L116.610537,8.11791992 L115.842715,8.11791992 C115.842715,8.38354492 115.920881,8.63049316 116.077212,8.85876465 C116.233543,9.08703613 116.450055,9.2648112 116.726748,9.39208984 C117.003441,9.51936849 117.321637,9.58300781 117.681338,9.58300781 Z M123.998398,9.58300781 C124.51028,9.58300781 124.926702,9.46195475 125.247666,9.21984863 C125.56863,8.97774251 125.729111,8.65608724 125.729111,8.25488281 C125.729111,8.01416016 125.671698,7.81009928 125.55687,7.6427002 C125.442043,7.47530111 125.265651,7.33211263 125.027695,7.21313477 C124.78974,7.0941569 124.479152,6.9917806 124.095933,6.90600586 C123.712713,6.82023112 123.44778,6.73030599 123.301133,6.63623047 C123.154486,6.54215495 123.081162,6.40242513 123.081162,6.21704102 C123.081162,6.02058919 123.16002,5.86149089 123.317734,5.73974609 C123.475449,5.6180013 123.694036,5.55712891 123.973496,5.55712891 C124.244655,5.55712891 124.469468,5.6332194 124.647935,5.78540039 C124.826401,5.93758138 124.915635,6.1188151 124.915635,6.32910156 L124.915635,6.32910156 L125.687607,6.32910156 C125.687607,5.91959635 125.529201,5.58341471 125.212388,5.32055664 C124.895575,5.05769857 124.482611,4.92626953 123.973496,4.92626953 C123.489284,4.92626953 123.091538,5.05354818 122.780259,5.30810547 C122.468979,5.56266276 122.31334,5.87394206 122.31334,6.24194336 C122.31334,6.46329753 122.367987,6.65421549 122.47728,6.81469727 C122.586574,6.97517904 122.755356,7.11352539 122.983628,7.22973633 C123.211899,7.34594727 123.520412,7.44555664 123.909165,7.52856445 C124.297918,7.61157227 124.570461,7.71048991 124.726792,7.82531738 C124.883123,7.94014486 124.961289,8.10131836 124.961289,8.30883789 C124.961289,8.50528971 124.873439,8.66231283 124.697739,8.77990723 C124.522039,8.89750163 124.288926,8.95629883 123.998398,8.95629883 C123.682969,8.95629883 123.429103,8.88090007 123.236802,8.73010254 C123.0445,8.57930501 122.941432,8.37524414 122.927598,8.11791992 L122.927598,8.11791992 L122.159775,8.11791992 C122.159775,8.38354492 122.237941,8.63049316 122.394272,8.85876465 C122.550604,9.08703613 122.767116,9.2648112 123.043809,9.39208984 C123.320501,9.51936849 123.638698,9.58300781 123.998398,9.58300781 Z M128.101143,9.58300781 C128.67943,9.58300781 129.117988,9.40730794 129.416816,9.0559082 L129.416816,9.0559082 L129.433418,9.5 L130.163887,9.5 L130.163887,5.00927734 L129.396064,5.00927734 L129.396064,8.27563477 C129.20238,8.71280924 128.812243,8.93139648 128.225654,8.93139648 C127.672269,8.93139648 127.395576,8.59106445 127.395576,7.91040039 L127.395576,7.91040039 L127.395576,5.00927734 L126.627754,5.00927734 L126.627754,7.93115234 C126.630521,8.47623698 126.757108,8.88781738 127.007515,9.16589355 C127.257922,9.44396973 127.622464,9.58300781 128.101143,9.58300781 Z M132.012969,11.2265625 L132.012969,9.06420898 C132.325631,9.41007487 132.754505,9.58300781 133.29959,9.58300781 C133.833607,9.58300781 134.256947,9.37410482 134.569609,8.95629883 C134.882272,8.53849284 135.038603,7.98787435 135.038603,7.30444336 L135.038603,7.30444336 L135.038603,7.23388672 C135.038603,6.50895182 134.88158,5.94311523 134.567534,5.53637695 C134.253488,5.12963867 133.826689,4.92626953 133.287139,4.92626953 C132.730986,4.92626953 132.296579,5.11995443 131.983916,5.50732422 L131.983916,5.50732422 L131.946562,5.00927734 L131.245146,5.00927734 L131.245146,11.2265625 L132.012969,11.2265625 Z M133.067168,8.95629883 C132.594023,8.95629883 132.242624,8.75154622 132.012969,8.34204102 L132.012969,8.34204102 L132.012969,6.19628906 C132.245391,5.78401693 132.594023,5.57788086 133.058867,5.57788086 C133.435169,5.57788086 133.73123,5.72452799 133.947051,6.01782227 C134.162871,6.31111654 134.270781,6.7109375 134.270781,7.21728516 C134.270781,7.79280599 134.162179,8.22652181 133.944976,8.51843262 C133.727772,8.81034342 133.435169,8.95629883 133.067168,8.95629883 Z M136.696768,11.2265625 L136.696768,9.06420898 C137.00943,9.41007487 137.438304,9.58300781 137.983389,9.58300781 C138.517406,9.58300781 138.940745,9.37410482 139.253408,8.95629883 C139.566071,8.53849284 139.722402,7.98787435 139.722402,7.30444336 L139.722402,7.30444336 L139.722402,7.23388672 C139.722402,6.50895182 139.565379,5.94311523 139.251333,5.53637695 C138.937287,5.12963867 138.510488,4.92626953 137.970937,4.92626953 C137.414785,4.92626953 136.980378,5.11995443 136.667715,5.50732422 L136.667715,5.50732422 L136.630361,5.00927734 L135.928945,5.00927734 L135.928945,11.2265625 L136.696768,11.2265625 Z M137.750967,8.95629883 C137.277822,8.95629883 136.926423,8.75154622 136.696768,8.34204102 L136.696768,8.34204102 L136.696768,6.19628906 C136.929189,5.78401693 137.277822,5.57788086 137.742666,5.57788086 C138.118968,5.57788086 138.415029,5.72452799 138.63085,6.01782227 C138.84667,6.31111654 138.95458,6.7109375 138.95458,7.21728516 C138.95458,7.79280599 138.845978,8.22652181 138.628774,8.51843262 C138.411571,8.81034342 138.118968,8.95629883 137.750967,8.95629883 Z M142.455518,9.58300781 C142.859489,9.58300781 143.217114,9.48616536 143.528394,9.29248047 C143.839673,9.09879557 144.079012,8.82832845 144.246411,8.4810791 C144.41381,8.13382975 144.49751,7.74161784 144.49751,7.30444336 L144.49751,7.30444336 L144.49751,7.25048828 C144.49751,6.5476888 144.308667,5.98461914 143.930981,5.5612793 C143.553296,5.13793945 143.058708,4.92626953 142.447217,4.92626953 C142.051546,4.92626953 141.699455,5.02172852 141.390942,5.21264648 C141.08243,5.40356445 140.841707,5.67472331 140.668774,6.02612305 C140.495841,6.37752279 140.409375,6.77319336 140.409375,7.21313477 L140.409375,7.21313477 L140.409375,7.26708984 C140.409375,7.96435547 140.598218,8.5246582 140.975903,8.94799805 C141.353589,9.37133789 141.846794,9.58300781 142.455518,9.58300781 Z M142.455518,8.95629883 C142.068148,8.95629883 141.758944,8.8055013 141.527905,8.50390625 C141.296867,8.2023112 141.181348,7.80249023 141.181348,7.30444336 C141.181348,6.74275716 141.297559,6.31111654 141.52998,6.00952148 C141.762402,5.70792643 142.068148,5.55712891 142.447217,5.55712891 C142.834587,5.55712891 143.145174,5.71000163 143.378979,6.01574707 C143.612785,6.32149251 143.729687,6.72062174 143.729687,7.21313477 C143.729687,7.76375326 143.61486,8.19193522 143.385205,8.49768066 C143.15555,8.80342611 142.845654,8.95629883 142.455518,8.95629883 Z M146.143223,9.5 L146.143223,6.3125 C146.323073,5.8836263 146.664788,5.66918945 147.168369,5.66918945 C147.303949,5.66918945 147.429844,5.6788737 147.546055,5.69824219 L147.546055,5.69824219 L147.546055,4.984375 C147.468581,4.94563802 147.355137,4.92626953 147.205723,4.92626953 C146.743646,4.92626953 146.386712,5.12687174 146.134922,5.52807617 L146.134922,5.52807617 L146.122471,5.00927734 L145.3754,5.00927734 L145.3754,9.5 L146.143223,9.5 Z M149.685664,9.58300781 C149.876582,9.58300781 150.073034,9.55533854 150.27502,9.5 L150.27502,9.5 L150.27502,8.87744141 C150.120072,8.91064453 149.998327,8.92724609 149.909785,8.92724609 C149.729935,8.92724609 149.602656,8.88228353 149.527949,8.7923584 C149.453242,8.70243327 149.415889,8.56754557 149.415889,8.38769531 L149.415889,8.38769531 L149.415889,5.6027832 L150.254268,5.6027832 L150.254268,5.00927734 L149.415889,5.00927734 L149.415889,3.921875 L148.648066,3.921875 L148.648066,5.00927734 L147.830439,5.00927734 L147.830439,5.6027832 L148.648066,5.6027832 L148.648066,8.38769531 C148.648066,8.76953125 148.735225,9.06420898 148.909541,9.27172852 C149.083857,9.47924805 149.342565,9.58300781 149.685664,9.58300781 Z M152.929277,9.58300781 C153.681881,9.58300781 154.246335,9.29386393 154.622637,8.71557617 L154.622637,8.71557617 L154.153643,8.3503418 C154.012529,8.53295898 153.847897,8.67960612 153.659746,8.7902832 C153.471595,8.90096029 153.24194,8.95629883 152.970781,8.95629883 C152.588945,8.95629883 152.274207,8.82002767 152.026567,8.54748535 C151.778927,8.27494303 151.649574,7.91731771 151.638506,7.47460938 L151.638506,7.47460938 L154.680742,7.47460938 L154.680742,7.1550293 C154.680742,6.43839518 154.518877,5.88777669 154.195146,5.50317383 C153.871416,5.11857096 153.41764,4.92626953 152.833818,4.92626953 C152.476885,4.92626953 152.145545,5.02518717 151.8398,5.22302246 C151.534054,5.42085775 151.296099,5.69478353 151.125933,6.0447998 C150.955767,6.39481608 150.870684,6.79256185 150.870684,7.23803711 L150.870684,7.23803711 L150.870684,7.37915039 C150.870684,8.04874674 151.061602,8.5834554 151.443437,8.98327637 C151.825273,9.38309733 152.320553,9.58300781 152.929277,9.58300781 Z M153.91292,6.84375 L151.663408,6.84375 C151.713213,6.43701172 151.843258,6.1208903 152.053545,5.89538574 C152.263831,5.66988118 152.523922,5.55712891 152.833818,5.55712891 C153.154782,5.55712891 153.409339,5.66434733 153.59749,5.87878418 C153.785641,6.09322103 153.890784,6.39550781 153.91292,6.78564453 L153.91292,6.78564453 L153.91292,6.84375 Z M157.061074,9.58300781 C157.608926,9.58300781 158.036416,9.39485677 158.343545,9.01855469 L158.343545,9.01855469 L158.380898,9.5 L159.086465,9.5 L159.086465,3.125 L158.318643,3.125 L158.318643,5.46582031 C158.011514,5.10611979 157.595091,4.92626953 157.069375,4.92626953 C156.540892,4.92626953 156.113402,5.13586426 155.786904,5.55505371 C155.460407,5.97424316 155.297158,6.52832031 155.297158,7.21728516 L155.297158,7.21728516 L155.297158,7.27539062 C155.297158,7.96158854 155.461099,8.51774089 155.788979,8.94384766 C156.11686,9.36995443 156.540892,9.58300781 157.061074,9.58300781 Z M157.251992,8.93139648 C156.881224,8.93139648 156.590697,8.78751628 156.38041,8.49975586 C156.170124,8.21199544 156.06498,7.81355794 156.06498,7.30444336 C156.06498,6.73445638 156.170124,6.30419922 156.38041,6.01367188 C156.590697,5.72314453 156.883991,5.57788086 157.260293,5.57788086 C157.736204,5.57788086 158.088988,5.78955078 158.318643,6.21289062 L158.318643,6.21289062 L158.318643,8.27563477 C158.094521,8.71280924 157.738971,8.93139648 157.251992,8.93139648 Z M70.6396484,19.0830078 C71.1708984,19.0830078 71.5942383,18.8747965 71.909668,18.458374 C72.2250977,18.0419515 72.3828125,17.4906413 72.3828125,16.8044434 L72.3828125,16.8044434 L72.3828125,16.7380371 C72.3828125,16.021403 72.2271729,15.4569499 71.9158936,15.0446777 C71.6046143,14.6324056 71.1764323,14.4262695 70.6313477,14.4262695 C70.086263,14.4262695 69.6587728,14.618571 69.348877,15.0031738 L69.348877,15.0031738 L69.348877,12.625 L68.5810547,12.625 L68.5810547,19 L69.2866211,19 L69.3239746,18.4812012 C69.6338704,18.8824056 70.0724284,19.0830078 70.6396484,19.0830078 Z M70.4487305,18.4313965 C69.9506836,18.4313965 69.5840658,18.1962077 69.348877,17.7258301 L69.348877,17.7258301 L69.348877,15.7834473 C69.5702311,15.3130697 69.934082,15.0778809 70.4404297,15.0778809 C70.8194987,15.0778809 71.110026,15.2203776 71.3120117,15.5053711 C71.5139974,15.7903646 71.6149902,16.1943359 71.6149902,16.7172852 C71.6149902,17.2900391 71.5126139,17.7189128 71.3078613,18.0039062 C71.1031087,18.2888997 70.8167318,18.4313965 70.4487305,18.4313965 Z M73.4640723,20.8137207 C74.0727962,20.8137207 74.516888,20.4401855 74.7963477,19.6931152 L74.7963477,19.6931152 L76.6017676,14.5092773 L75.7799902,14.5092773 L74.7340918,17.8752441 L73.6134863,14.5092773 L72.7751074,14.5092773 L74.3771582,18.9501953 L74.2069922,19.4067383 C74.1129167,19.6861979 73.9932471,19.8784993 73.8479834,19.9836426 C73.7027197,20.0887858 73.5000423,20.1413574 73.2399512,20.1413574 L73.2399512,20.1413574 L73.0324316,20.1247559 L73.0324316,20.7473145 L73.3188086,20.8012695 L73.4640723,20.8137207 Z M80.5323535,19.0830078 C80.7232715,19.0830078 80.9197233,19.0553385 81.121709,19 L81.121709,19 L81.121709,18.3774414 C80.9667611,18.4106445 80.8450163,18.4272461 80.7564746,18.4272461 C80.5766243,18.4272461 80.4493457,18.3822835 80.3746387,18.2923584 C80.2999316,18.2024333 80.2625781,18.0675456 80.2625781,17.8876953 L80.2625781,17.8876953 L80.2625781,15.1027832 L81.100957,15.1027832 L81.100957,14.5092773 L80.2625781,14.5092773 L80.2625781,13.421875 L79.4947559,13.421875 L79.4947559,14.5092773 L78.6771289,14.5092773 L78.6771289,15.1027832 L79.4947559,15.1027832 L79.4947559,17.8876953 C79.4947559,18.2695312 79.5819141,18.564209 79.7562305,18.7717285 C79.9305469,18.979248 80.1892546,19.0830078 80.5323535,19.0830078 Z M82.6802637,19 L82.6802637,15.8000488 C82.7854069,15.5842285 82.932054,15.4099121 83.1202051,15.2770996 C83.3083561,15.1442871 83.5269434,15.0778809 83.7759668,15.0778809 C84.0830957,15.0778809 84.309292,15.1553548 84.4545557,15.3103027 C84.5998193,15.4652507 84.6738346,15.7045898 84.6766016,16.0283203 L84.6766016,16.0283203 L84.6766016,19 L85.4444238,19 L85.4444238,16.0324707 C85.436123,14.9616699 84.9574447,14.4262695 84.0083887,14.4262695 C83.463304,14.4262695 83.0205957,14.6351725 82.6802637,15.0529785 L82.6802637,15.0529785 L82.6802637,12.625 L81.9124414,12.625 L81.9124414,19 L82.6802637,19 Z M88.3726074,19.0830078 C89.1252116,19.0830078 89.6896647,18.7938639 90.0659668,18.2155762 L90.0659668,18.2155762 L89.5969726,17.8503418 C89.4558594,18.032959 89.2912272,18.1796061 89.1030762,18.2902832 C88.9149251,18.4009603 88.6852702,18.4562988 88.4141113,18.4562988 C88.0322754,18.4562988 87.7175374,18.3200277 87.4698975,18.0474854 C87.2222575,17.774943 87.0929036,17.4173177 87.0818359,16.9746094 L87.0818359,16.9746094 L90.1240723,16.9746094 L90.1240723,16.6550293 C90.1240723,15.9383952 89.962207,15.3877767 89.6384766,15.0031738 C89.3147461,14.618571 88.86097,14.4262695 88.2771484,14.4262695 C87.9202148,14.4262695 87.5888753,14.5251872 87.2831299,14.7230225 C86.9773844,14.9208577 86.7394287,15.1947835 86.5692627,15.5447998 C86.3990967,15.8948161 86.3140137,16.2925618 86.3140137,16.7380371 L86.3140137,16.7380371 L86.3140137,16.8791504 C86.3140137,17.5487467 86.5049316,18.0834554 86.8867676,18.4832764 C87.2686035,18.8830973 87.7638835,19.0830078 88.3726074,19.0830078 Z M89.35625,16.34375 L87.1067383,16.34375 C87.156543,15.9370117 87.2865885,15.6208903 87.496875,15.3953857 C87.7071615,15.1698812 87.9672526,15.0571289 88.2771484,15.0571289 C88.598112,15.0571289 88.8526693,15.1643473 89.0408203,15.3787842 C89.2289713,15.593221 89.3341146,15.8955078 89.35625,16.2856445 L89.35625,16.2856445 L89.35625,16.34375 Z M96.9059766,19 L96.9059766,18.3483887 L93.8637402,18.3483887 L93.8637402,16.2067871 L96.4826367,16.2067871 L96.4826367,15.5551758 L93.8637402,15.5551758 L93.8637402,13.612793 L96.8644726,13.612793 L96.8644726,12.9570312 L93.0668652,12.9570312 L93.0668652,19 L96.9059766,19 Z M99.0787891,19.0830078 C99.6570768,19.0830078 100.095635,18.9073079 100.394463,18.5559082 L100.394463,18.5559082 L100.411064,19 L101.141533,19 L101.141533,14.5092773 L100.373711,14.5092773 L100.373711,17.7756348 C100.180026,18.2128092 99.7898893,18.4313965 99.2033008,18.4313965 C98.6499154,18.4313965 98.3732226,18.0910645 98.3732226,17.4104004 L98.3732226,17.4104004 L98.3732226,14.5092773 L97.6054004,14.5092773 L97.6054004,17.4311523 C97.6081673,17.976237 97.7347542,18.3878174 97.9851611,18.6658936 C98.235568,18.9439697 98.6001107,19.0830078 99.0787891,19.0830078 Z M102.990615,19 L102.990615,15.8125 C103.170465,15.3836263 103.512181,15.1691895 104.015762,15.1691895 C104.151341,15.1691895 104.277236,15.1788737 104.393447,15.1982422 L104.393447,15.1982422 L104.393447,14.484375 C104.315973,14.445638 104.202529,14.4262695 104.053115,14.4262695 C103.591038,14.4262695 103.234105,14.6268717 102.982314,15.0280762 L102.982314,15.0280762 L102.969863,14.5092773 L102.222793,14.5092773 L102.222793,19 L102.990615,19 Z M106.773779,19.0830078 C107.177751,19.0830078 107.535376,18.9861654 107.846655,18.7924805 C108.157935,18.5987956 108.397274,18.3283285 108.564673,17.9810791 C108.732072,17.6338298 108.815771,17.2416178 108.815771,16.8044434 L108.815771,16.8044434 L108.815771,16.7504883 C108.815771,16.0476888 108.626929,15.4846191 108.249243,15.0612793 C107.871558,14.6379395 107.376969,14.4262695 106.765479,14.4262695 C106.369808,14.4262695 106.017716,14.5217285 105.709204,14.7126465 C105.400692,14.9035645 105.159969,15.1747233 104.987036,15.526123 C104.814103,15.8775228 104.727637,16.2731934 104.727637,16.7131348 L104.727637,16.7131348 L104.727637,16.7670898 C104.727637,17.4643555 104.916479,18.0246582 105.294165,18.447998 C105.671851,18.8713379 106.165055,19.0830078 106.773779,19.0830078 Z M106.773779,18.4562988 C106.386409,18.4562988 106.077205,18.3055013 105.846167,18.0039062 C105.615129,17.7023112 105.499609,17.3024902 105.499609,16.8044434 C105.499609,16.2427572 105.61582,15.8111165 105.848242,15.5095215 C106.080664,15.2079264 106.386409,15.0571289 106.765479,15.0571289 C107.152848,15.0571289 107.463436,15.2100016 107.697241,15.5157471 C107.931047,15.8214925 108.047949,16.2206217 108.047949,16.7131348 C108.047949,17.2637533 107.933122,17.6919352 107.703467,17.9976807 C107.473812,18.3034261 107.163916,18.4562988 106.773779,18.4562988 Z M110.461484,20.7265625 L110.461484,18.564209 C110.774147,18.9100749 111.203021,19.0830078 111.748105,19.0830078 C112.282122,19.0830078 112.705462,18.8741048 113.018125,18.4562988 C113.330788,18.0384928 113.487119,17.4878743 113.487119,16.8044434 L113.487119,16.8044434 L113.487119,16.7338867 C113.487119,16.0089518 113.330096,15.4431152 113.01605,15.036377 C112.702004,14.6296387 112.275205,14.4262695 111.735654,14.4262695 C111.179502,14.4262695 110.745094,14.6199544 110.432432,15.0073242 L110.432432,15.0073242 L110.395078,14.5092773 L109.693662,14.5092773 L109.693662,20.7265625 L110.461484,20.7265625 Z M111.515684,18.4562988 C111.042539,18.4562988 110.691139,18.2515462 110.461484,17.842041 L110.461484,17.842041 L110.461484,15.6962891 C110.693906,15.2840169 111.042539,15.0778809 111.507383,15.0778809 C111.883685,15.0778809 112.179746,15.224528 112.395566,15.5178223 C112.611387,15.8111165 112.719297,16.2109375 112.719297,16.7172852 C112.719297,17.292806 112.610695,17.7265218 112.393491,18.0184326 C112.176287,18.3103434 111.883685,18.4562988 111.515684,18.4562988 Z M116.240986,19.0830078 C116.99359,19.0830078 117.558044,18.7938639 117.934346,18.2155762 L117.934346,18.2155762 L117.465352,17.8503418 C117.324238,18.032959 117.159606,18.1796061 116.971455,18.2902832 C116.783304,18.4009603 116.553649,18.4562988 116.28249,18.4562988 C115.900654,18.4562988 115.585916,18.3200277 115.338276,18.0474854 C115.090636,17.774943 114.961283,17.4173177 114.950215,16.9746094 L114.950215,16.9746094 L117.992451,16.9746094 L117.992451,16.6550293 C117.992451,15.9383952 117.830586,15.3877767 117.506855,15.0031738 C117.183125,14.618571 116.729349,14.4262695 116.145527,14.4262695 C115.788594,14.4262695 115.457254,14.5251872 115.151509,14.7230225 C114.845763,14.9208577 114.607808,15.1947835 114.437642,15.5447998 C114.267476,15.8948161 114.182393,16.2925618 114.182393,16.7380371 L114.182393,16.7380371 L114.182393,16.8791504 C114.182393,17.5487467 114.373311,18.0834554 114.755146,18.4832764 C115.136982,18.8830973 115.632262,19.0830078 116.240986,19.0830078 Z M117.224629,16.34375 L114.975117,16.34375 C115.024922,15.9370117 115.154967,15.6208903 115.365254,15.3953857 C115.57554,15.1698812 115.835631,15.0571289 116.145527,15.0571289 C116.466491,15.0571289 116.721048,15.1643473 116.909199,15.3787842 C117.09735,15.593221 117.202493,15.8955078 117.224629,16.2856445 L117.224629,16.2856445 L117.224629,16.34375 Z M120.181865,19.0830078 C120.677145,19.0830078 121.103252,18.8976237 121.460186,18.5268555 C121.487855,18.7537435 121.523825,18.9114583 121.568096,19 L121.568096,19 L122.373271,19 L122.373271,18.9335938 C122.268128,18.6901042 122.215557,18.3622233 122.215557,17.9499512 L122.215557,17.9499512 L122.215557,15.8830566 C122.204489,15.4292806 122.052308,15.0730387 121.759014,14.8143311 C121.465719,14.5556234 121.060365,14.4262695 120.542949,14.4262695 C120.216452,14.4262695 119.916932,14.4871419 119.64439,14.6088867 C119.371847,14.7306315 119.156027,14.8959554 118.996929,15.1048584 C118.83783,15.3137614 118.758281,15.5302734 118.758281,15.7543945 L118.758281,15.7543945 L119.530254,15.7543945 C119.530254,15.5579427 119.622946,15.3905436 119.80833,15.2521973 C119.993714,15.1138509 120.223369,15.0446777 120.497295,15.0446777 C120.809958,15.0446777 121.04653,15.1242269 121.207012,15.2833252 C121.367493,15.4424235 121.447734,15.6561686 121.447734,15.9245605 L121.447734,15.9245605 L121.447734,16.2773438 L120.700664,16.2773438 C120.05597,16.2773438 119.555848,16.4066976 119.200298,16.6654053 C118.844748,16.924113 118.666973,17.2872721 118.666973,17.7548828 C118.666973,18.1394857 118.808778,18.4569906 119.092388,18.7073975 C119.375998,18.9578044 119.739157,19.0830078 120.181865,19.0830078 Z M120.293926,18.4147949 C120.042135,18.4147949 119.835999,18.3470052 119.675518,18.2114258 C119.515036,18.0758464 119.434795,17.8876953 119.434795,17.6469727 C119.434795,17.0963542 119.905173,16.8210449 120.845928,16.8210449 L120.845928,16.8210449 L121.447734,16.8210449 L121.447734,17.7424316 C121.350892,17.9416504 121.194561,18.1035156 120.97874,18.2280273 C120.76292,18.3525391 120.534648,18.4147949 120.293926,18.4147949 Z M124.101992,19 L124.101992,15.8000488 C124.207135,15.5842285 124.353783,15.4099121 124.541934,15.2770996 C124.730085,15.1442871 124.948672,15.0778809 125.197695,15.0778809 C125.504824,15.0778809 125.73102,15.1553548 125.876284,15.3103027 C126.021548,15.4652507 126.095563,15.7045898 126.09833,16.0283203 L126.09833,16.0283203 L126.09833,19 L126.866152,19 L126.866152,16.0324707 C126.857852,14.9616699 126.379173,14.4262695 125.430117,14.4262695 C124.876732,14.4262695 124.42849,14.6420898 124.085391,15.0737305 L124.085391,15.0737305 L124.060488,14.5092773 L123.33417,14.5092773 L123.33417,19 L124.101992,19 Z M132.137314,19.0830078 L132.348984,19.074707 C132.957708,19.0304362 133.439845,18.8270671 133.795395,18.4645996 C134.150946,18.1021322 134.330104,17.6359049 134.332871,17.065918 L134.332871,17.065918 L134.332871,12.9570312 L133.531846,12.9570312 L133.531846,17.0534668 C133.531846,17.4906413 133.412176,17.8295898 133.172837,18.0703125 C132.933498,18.3110352 132.588324,18.4313965 132.137314,18.4313965 C131.691839,18.4313965 131.34874,18.3103434 131.108018,18.0682373 C130.867295,17.8261312 130.746934,17.4864909 130.746934,17.0493164 L130.746934,17.0493164 L130.746934,12.9570312 L129.958359,12.9570312 L129.958359,17.0742188 C129.963893,17.6995443 130.163112,18.1906738 130.556016,18.5476074 C130.948919,18.904541 131.476019,19.0830078 132.137314,19.0830078 L132.137314,19.0830078 Z M136.1529,19 L136.1529,15.8000488 C136.258044,15.5842285 136.404691,15.4099121 136.592842,15.2770996 C136.780993,15.1442871 136.99958,15.0778809 137.248603,15.0778809 C137.555732,15.0778809 137.781929,15.1553548 137.927192,15.3103027 C138.072456,15.4652507 138.146471,15.7045898 138.149238,16.0283203 L138.149238,16.0283203 L138.149238,19 L138.917061,19 L138.917061,16.0324707 C138.90876,14.9616699 138.430081,14.4262695 137.481025,14.4262695 C136.92764,14.4262695 136.479398,14.6420898 136.136299,15.0737305 L136.136299,15.0737305 L136.111396,14.5092773 L135.385078,14.5092773 L135.385078,19 L136.1529,19 Z M140.446562,13.7539062 C140.595977,13.7539062 140.709421,13.7124023 140.786895,13.6293945 C140.864368,13.5463867 140.903105,13.442627 140.903105,13.3181152 C140.903105,13.1936035 140.864368,13.0884603 140.786895,13.0026855 C140.709421,12.9169108 140.595977,12.8740234 140.446562,12.8740234 C140.297148,12.8740234 140.184396,12.9169108 140.108306,13.0026855 C140.032215,13.0884603 139.99417,13.1936035 139.99417,13.3181152 C139.99417,13.442627 140.032215,13.5463867 140.108306,13.6293945 C140.184396,13.7124023 140.297148,13.7539062 140.446562,13.7539062 Z M140.824248,19 L140.824248,14.5092773 L140.056426,14.5092773 L140.056426,19 L140.824248,19 Z M143.810537,19.0830078 C144.214508,19.0830078 144.572134,18.9861654 144.883413,18.7924805 C145.194692,18.5987956 145.434032,18.3283285 145.601431,17.9810791 C145.76883,17.6338298 145.852529,17.2416178 145.852529,16.8044434 L145.852529,16.8044434 L145.852529,16.7504883 C145.852529,16.0476888 145.663686,15.4846191 145.286001,15.0612793 C144.908315,14.6379395 144.413727,14.4262695 143.802236,14.4262695 C143.406566,14.4262695 143.054474,14.5217285 142.745962,14.7126465 C142.43745,14.9035645 142.196727,15.1747233 142.023794,15.526123 C141.850861,15.8775228 141.764395,16.2731934 141.764395,16.7131348 L141.764395,16.7131348 L141.764395,16.7670898 C141.764395,17.4643555 141.953237,18.0246582 142.330923,18.447998 C142.708608,18.8713379 143.201813,19.0830078 143.810537,19.0830078 Z M143.810537,18.4562988 C143.423167,18.4562988 143.113963,18.3055013 142.882925,18.0039062 C142.651886,17.7023112 142.536367,17.3024902 142.536367,16.8044434 C142.536367,16.2427572 142.652578,15.8111165 142.885,15.5095215 C143.117422,15.2079264 143.423167,15.0571289 143.802236,15.0571289 C144.189606,15.0571289 144.500194,15.2100016 144.733999,15.5157471 C144.967804,15.8214925 145.084707,16.2206217 145.084707,16.7131348 C145.084707,17.2637533 144.96988,17.6919352 144.740225,17.9976807 C144.51057,18.3034261 144.200674,18.4562988 143.810537,18.4562988 Z M147.498242,19 L147.498242,15.8000488 C147.603385,15.5842285 147.750033,15.4099121 147.938184,15.2770996 C148.126335,15.1442871 148.344922,15.0778809 148.593945,15.0778809 C148.901074,15.0778809 149.12727,15.1553548 149.272534,15.3103027 C149.417798,15.4652507 149.491813,15.7045898 149.49458,16.0283203 L149.49458,16.0283203 L149.49458,19 L150.262402,19 L150.262402,16.0324707 C150.254102,14.9616699 149.775423,14.4262695 148.826367,14.4262695 C148.272982,14.4262695 147.82474,14.6420898 147.481641,15.0737305 L147.481641,15.0737305 L147.456738,14.5092773 L146.73042,14.5092773 L146.73042,19 L147.498242,19 Z M151.285557,14.6130371 L151.372715,13.0856934 L151.372715,12.625 L150.754307,12.625 L150.750156,14.6130371 L151.285557,14.6130371 Z M153.620234,19.0830078 C154.132116,19.0830078 154.548538,18.9619548 154.869502,18.7198486 C155.190465,18.4777425 155.350947,18.1560872 155.350947,17.7548828 C155.350947,17.5141602 155.293534,17.3100993 155.178706,17.1427002 C155.063879,16.9753011 154.887487,16.8321126 154.649531,16.7131348 C154.411575,16.5941569 154.100988,16.4917806 153.717769,16.4060059 C153.334549,16.3202311 153.069616,16.230306 152.922969,16.1362305 C152.776322,16.0421549 152.702998,15.9024251 152.702998,15.717041 C152.702998,15.5205892 152.781855,15.3614909 152.93957,15.2397461 C153.097285,15.1180013 153.315872,15.0571289 153.595332,15.0571289 C153.866491,15.0571289 154.091304,15.1332194 154.26977,15.2854004 C154.448237,15.4375814 154.537471,15.6188151 154.537471,15.8291016 L154.537471,15.8291016 L155.309443,15.8291016 C155.309443,15.4195964 155.151037,15.0834147 154.834224,14.8205566 C154.51741,14.5576986 154.104447,14.4262695 153.595332,14.4262695 C153.11112,14.4262695 152.713374,14.5535482 152.402095,14.8081055 C152.090815,15.0626628 151.935176,15.3739421 151.935176,15.7419434 C151.935176,15.9632975 151.989823,16.1542155 152.099116,16.3146973 C152.20841,16.475179 152.377192,16.6135254 152.605464,16.7297363 C152.833735,16.8459473 153.142248,16.9455566 153.531001,17.0285645 C153.919754,17.1115723 154.192297,17.2104899 154.348628,17.3253174 C154.504959,17.4401449 154.583125,17.6013184 154.583125,17.8088379 C154.583125,18.0052897 154.495275,18.1623128 154.319575,18.2799072 C154.143875,18.3975016 153.910762,18.4562988 153.620234,18.4562988 C153.304805,18.4562988 153.050939,18.3809001 152.858638,18.2301025 C152.666336,18.079305 152.563268,17.8752441 152.549434,17.6179199 L152.549434,17.6179199 L151.781611,17.6179199 C151.781611,17.8835449 151.859777,18.1304932 152.016108,18.3587646 C152.17244,18.5870361 152.388952,18.7648112 152.665645,18.8920898 C152.942337,19.0193685 153.260534,19.0830078 153.620234,19.0830078 Z M69.498291,28.5 L69.498291,25.7067871 L72.5446777,25.7067871 L72.5446777,28.5 L73.3457031,28.5 L73.3457031,22.4570312 L72.5446777,22.4570312 L72.5446777,25.0551758 L69.498291,25.0551758 L69.498291,22.4570312 L68.701416,22.4570312 L68.701416,28.5 L69.498291,28.5 Z M76.3983984,28.5830078 C76.8023698,28.5830078 77.1599951,28.4861654 77.4712744,28.2924805 C77.7825537,28.0987956 78.0218929,27.8283285 78.189292,27.4810791 C78.3566911,27.1338298 78.4403906,26.7416178 78.4403906,26.3044434 L78.4403906,26.3044434 L78.4403906,26.2504883 C78.4403906,25.5476888 78.2515479,24.9846191 77.8738623,24.5612793 C77.4961768,24.1379395 77.0015885,23.9262695 76.3900977,23.9262695 C75.9944271,23.9262695 75.6423356,24.0217285 75.3338232,24.2126465 C75.0253109,24.4035645 74.7845882,24.6747233 74.6116553,25.026123 C74.4387223,25.3775228 74.3522559,25.7731934 74.3522559,26.2131348 L74.3522559,26.2131348 L74.3522559,26.2670898 C74.3522559,26.9643555 74.5410986,27.5246582 74.9187842,27.947998 C75.2964697,28.3713379 75.7896745,28.5830078 76.3983984,28.5830078 Z M76.3983984,27.9562988 C76.0110286,27.9562988 75.7018245,27.8055013 75.4707861,27.5039062 C75.2397477,27.2023112 75.1242285,26.8024902 75.1242285,26.3044434 C75.1242285,25.7427572 75.2404395,25.3111165 75.4728613,25.0095215 C75.7052832,24.7079264 76.0110286,24.5571289 76.3900977,24.5571289 C76.7774674,24.5571289 77.088055,24.7100016 77.3218604,25.0157471 C77.5556657,25.3214925 77.6725684,25.7206217 77.6725684,26.2131348 C77.6725684,26.7637533 77.5577409,27.1919352 77.3280859,27.4976807 C77.098431,27.8034261 76.7885352,27.9562988 76.3983984,27.9562988 Z M80.0861035,28.5 L80.0861035,25.3125 C80.2659538,24.8836263 80.6076693,24.6691895 81.11125,24.6691895 C81.2468294,24.6691895 81.3727246,24.6788737 81.4889355,24.6982422 L81.4889355,24.6982422 L81.4889355,23.984375 C81.4114616,23.945638 81.2980176,23.9262695 81.1486035,23.9262695 C80.6865267,23.9262695 80.3295931,24.1268717 80.0778027,24.5280762 L80.0778027,24.5280762 L80.0653516,24.0092773 L79.3182812,24.0092773 L79.3182812,28.5 L80.0861035,28.5 Z M82.5660449,23.2539062 C82.715459,23.2539062 82.828903,23.2124023 82.9063769,23.1293945 C82.9838509,23.0463867 83.0225879,22.942627 83.0225879,22.8181152 C83.0225879,22.6936035 82.9838509,22.5884603 82.9063769,22.5026855 C82.828903,22.4169108 82.715459,22.3740234 82.5660449,22.3740234 C82.4166309,22.3740234 82.3038786,22.4169108 82.2277881,22.5026855 C82.1516976,22.5884603 82.1136523,22.6936035 82.1136523,22.8181152 C82.1136523,22.942627 82.1516976,23.0463867 82.2277881,23.1293945 C82.3038786,23.2124023 82.4166309,23.2539062 82.5660449,23.2539062 Z M82.9437305,28.5 L82.9437305,24.0092773 L82.1759082,24.0092773 L82.1759082,28.5 L82.9437305,28.5 Z M87.4366113,28.5 L87.4366113,27.873291 L84.8094141,27.873291 L87.3120996,24.5529785 L87.3120996,24.0092773 L83.9087793,24.0092773 L83.9087793,24.6442871 L86.349209,24.6442871 L83.8714258,27.9355469 L83.8714258,28.5 L87.4366113,28.5 Z M89.9912598,28.5830078 C90.3952311,28.5830078 90.7528564,28.4861654 91.0641357,28.2924805 C91.375415,28.0987956 91.6147542,27.8283285 91.7821533,27.4810791 C91.9495524,27.1338298 92.0332519,26.7416178 92.0332519,26.3044434 L92.0332519,26.3044434 L92.0332519,26.2504883 C92.0332519,25.5476888 91.8444092,24.9846191 91.4667236,24.5612793 C91.0890381,24.1379395 90.5944499,23.9262695 89.982959,23.9262695 C89.5872884,23.9262695 89.2351969,24.0217285 88.9266846,24.2126465 C88.6181722,24.4035645 88.3774495,24.6747233 88.2045166,25.026123 C88.0315837,25.3775228 87.9451172,25.7731934 87.9451172,26.2131348 L87.9451172,26.2131348 L87.9451172,26.2670898 C87.9451172,26.9643555 88.13396,27.5246582 88.5116455,27.947998 C88.889331,28.3713379 89.3825358,28.5830078 89.9912598,28.5830078 Z M89.9912598,27.9562988 C89.60389,27.9562988 89.2946859,27.8055013 89.0636475,27.5039062 C88.832609,27.2023112 88.7170898,26.8024902 88.7170898,26.3044434 C88.7170898,25.7427572 88.8333008,25.3111165 89.0657226,25.0095215 C89.2981445,24.7079264 89.60389,24.5571289 89.982959,24.5571289 C90.3703288,24.5571289 90.6809163,24.7100016 90.9147217,25.0157471 C91.148527,25.3214925 91.2654297,25.7206217 91.2654297,26.2131348 C91.2654297,26.7637533 91.1506022,27.1919352 90.9209473,27.4976807 C90.6912923,27.8034261 90.3813965,27.9562988 89.9912598,27.9562988 Z M93.6789648,28.5 L93.6789648,25.3000488 C93.7841081,25.0842285 93.9307552,24.9099121 94.1189062,24.7770996 C94.3070573,24.6442871 94.5256445,24.5778809 94.774668,24.5778809 C95.0817969,24.5778809 95.3079932,24.6553548 95.4532568,24.8103027 C95.5985205,24.9652507 95.6725358,25.2045898 95.6753027,25.5283203 L95.6753027,25.5283203 L95.6753027,28.5 L96.443125,28.5 L96.443125,25.5324707 C96.4348242,24.4616699 95.9561458,23.9262695 95.0070898,23.9262695 C94.4537044,23.9262695 94.0054622,24.1420898 93.6623633,24.5737305 L93.6623633,24.5737305 L93.6374609,24.0092773 L92.9111426,24.0092773 L92.9111426,28.5 L93.6789648,28.5 Z M103.415947,28.5 L103.415947,27.873291 L100.382012,27.873291 L102.000664,26.1176758 C102.758802,25.2958984 103.137871,24.5875651 103.137871,23.9926758 C103.137871,23.5029297 102.974622,23.1107178 102.648125,22.81604 C102.321628,22.5213623 101.877536,22.3740234 101.31585,22.3740234 C100.715426,22.3740234 100.236056,22.5455729 99.8777392,22.8886719 C99.5194222,23.2317708 99.3402637,23.6813965 99.3402637,24.2375488 L99.3402637,24.2375488 L100.108086,24.2375488 C100.108086,23.850179 100.213921,23.5478923 100.425591,23.3306885 C100.637261,23.1134847 100.934014,23.0048828 101.31585,23.0048828 C101.634046,23.0048828 101.888604,23.1058757 102.079521,23.3078613 C102.270439,23.509847 102.365898,23.7685547 102.365898,24.0839844 C102.365898,24.3191732 102.307101,24.5467529 102.189507,24.7667236 C102.071912,24.9866943 101.858167,25.2723796 101.548271,25.6237793 L101.548271,25.6237793 L99.4564746,27.947998 L99.4564746,28.5 L103.415947,28.5 Z M106.032852,28.5830078 C106.685846,28.5830078 107.165908,28.3644206 107.473037,27.9272461 C107.780166,27.4900716 107.93373,26.8218587 107.93373,25.9226074 L107.93373,25.9226074 L107.93373,24.9265137 C107.92543,24.0576986 107.767715,23.4150798 107.460586,22.9986572 C107.153457,22.5822347 106.674779,22.3740234 106.024551,22.3740234 C105.368789,22.3740234 104.887344,22.5898438 104.580215,23.0214844 C104.273086,23.453125 104.119521,24.1130371 104.119521,25.0012207 L104.119521,25.0012207 L104.119521,26.0263672 C104.130589,26.8758138 104.291071,27.5142822 104.600967,27.9417725 C104.910863,28.3692627 105.388158,28.5830078 106.032852,28.5830078 Z M106.032852,27.9562988 C105.648249,27.9562988 105.36118,27.8006592 105.171645,27.4893799 C104.982111,27.1781006 104.887344,26.6959635 104.887344,26.0429688 L104.887344,26.0429688 L104.887344,24.8144531 C104.892878,24.2001953 104.98557,23.7450358 105.16542,23.4489746 C105.34527,23.1529134 105.631647,23.0048828 106.024551,23.0048828 C106.420221,23.0048828 106.709365,23.1536051 106.891982,23.4510498 C107.0746,23.7484945 107.165908,24.2223307 107.165908,24.8725586 L107.165908,24.8725586 L107.165908,26.130127 C107.157607,26.7609863 107.061457,27.2230632 106.877456,27.5163574 C106.693455,27.8096517 106.411921,27.9562988 106.032852,27.9562988 Z M112.791846,28.5 L112.791846,27.873291 L109.75791,27.873291 L111.376562,26.1176758 C112.134701,25.2958984 112.51377,24.5875651 112.51377,23.9926758 C112.51377,23.5029297 112.350521,23.1107178 112.024023,22.81604 C111.697526,22.5213623 111.253434,22.3740234 110.691748,22.3740234 C110.091325,22.3740234 109.611955,22.5455729 109.253638,22.8886719 C108.895321,23.2317708 108.716162,23.6813965 108.716162,24.2375488 L108.716162,24.2375488 L109.483984,24.2375488 C109.483984,23.850179 109.589819,23.5478923 109.801489,23.3306885 C110.013159,23.1134847 110.309912,23.0048828 110.691748,23.0048828 C111.009945,23.0048828 111.264502,23.1058757 111.45542,23.3078613 C111.646338,23.509847 111.741797,23.7685547 111.741797,24.0839844 C111.741797,24.3191732 111.683,24.5467529 111.565405,24.7667236 C111.447811,24.9866943 111.234066,25.2723796 110.92417,25.6237793 L110.92417,25.6237793 L108.832373,27.947998 L108.832373,28.5 L112.791846,28.5 Z M115.40875,28.5830078 C116.061745,28.5830078 116.541807,28.3644206 116.848936,27.9272461 C117.156064,27.4900716 117.309629,26.8218587 117.309629,25.9226074 L117.309629,25.9226074 L117.309629,24.9265137 C117.301328,24.0576986 117.143613,23.4150798 116.836484,22.9986572 C116.529355,22.5822347 116.050677,22.3740234 115.400449,22.3740234 C114.744687,22.3740234 114.263242,22.5898438 113.956113,23.0214844 C113.648984,23.453125 113.49542,24.1130371 113.49542,25.0012207 L113.49542,25.0012207 L113.49542,26.0263672 C113.506488,26.8758138 113.666969,27.5142822 113.976865,27.9417725 C114.286761,28.3692627 114.764056,28.5830078 115.40875,28.5830078 Z M115.40875,27.9562988 C115.024147,27.9562988 114.737078,27.8006592 114.547544,27.4893799 C114.358009,27.1781006 114.263242,26.6959635 114.263242,26.0429688 L114.263242,26.0429688 L114.263242,24.8144531 C114.268776,24.2001953 114.361468,23.7450358 114.541318,23.4489746 C114.721169,23.1529134 115.007546,23.0048828 115.400449,23.0048828 C115.79612,23.0048828 116.085264,23.1536051 116.267881,23.4510498 C116.450498,23.7484945 116.541807,24.2223307 116.541807,24.8725586 L116.541807,24.8725586 L116.541807,26.130127 C116.533506,26.7609863 116.437355,27.2230632 116.253354,27.5163574 C116.069354,27.8096517 115.787819,27.9562988 115.40875,27.9562988 Z M121.074199,30.2265625 L121.074199,28.064209 C121.386862,28.4100749 121.815736,28.5830078 122.36082,28.5830078 C122.894837,28.5830078 123.318177,28.3741048 123.63084,27.9562988 C123.943503,27.5384928 124.099834,26.9878743 124.099834,26.3044434 L124.099834,26.3044434 L124.099834,26.2338867 C124.099834,25.5089518 123.942811,24.9431152 123.628765,24.536377 C123.314718,24.1296387 122.88792,23.9262695 122.348369,23.9262695 C121.792217,23.9262695 121.357809,24.1199544 121.045146,24.5073242 L121.045146,24.5073242 L121.007793,24.0092773 L120.306377,24.0092773 L120.306377,30.2265625 L121.074199,30.2265625 Z M122.128398,27.9562988 C121.655254,27.9562988 121.303854,27.7515462 121.074199,27.342041 L121.074199,27.342041 L121.074199,25.1962891 C121.306621,24.7840169 121.655254,24.5778809 122.120098,24.5778809 C122.4964,24.5778809 122.792461,24.724528 123.008281,25.0178223 C123.224102,25.3111165 123.332012,25.7109375 123.332012,26.2172852 C123.332012,26.792806 123.22341,27.2265218 123.006206,27.5184326 C122.789002,27.8103434 122.4964,27.9562988 122.128398,27.9562988 Z M125.757998,28.5 L125.757998,25.3125 C125.937848,24.8836263 126.279564,24.6691895 126.783145,24.6691895 C126.918724,24.6691895 127.044619,24.6788737 127.16083,24.6982422 L127.16083,24.6982422 L127.16083,23.984375 C127.083356,23.945638 126.969912,23.9262695 126.820498,23.9262695 C126.358421,23.9262695 126.001488,24.1268717 125.749697,24.5280762 L125.749697,24.5280762 L125.737246,24.0092773 L124.990176,24.0092773 L124.990176,28.5 L125.757998,28.5 Z M129.541162,28.5830078 C129.945133,28.5830078 130.302759,28.4861654 130.614038,28.2924805 C130.925317,28.0987956 131.164657,27.8283285 131.332056,27.4810791 C131.499455,27.1338298 131.583154,26.7416178 131.583154,26.3044434 L131.583154,26.3044434 L131.583154,26.2504883 C131.583154,25.5476888 131.394312,24.9846191 131.016626,24.5612793 C130.63894,24.1379395 130.144352,23.9262695 129.532861,23.9262695 C129.137191,23.9262695 128.785099,24.0217285 128.476587,24.2126465 C128.168075,24.4035645 127.927352,24.6747233 127.754419,25.026123 C127.581486,25.3775228 127.49502,25.7731934 127.49502,26.2131348 L127.49502,26.2131348 L127.49502,26.2670898 C127.49502,26.9643555 127.683862,27.5246582 128.061548,27.947998 C128.439233,28.3713379 128.932438,28.5830078 129.541162,28.5830078 Z M129.541162,27.9562988 C129.153792,27.9562988 128.844588,27.8055013 128.61355,27.5039062 C128.382511,27.2023112 128.266992,26.8024902 128.266992,26.3044434 C128.266992,25.7427572 128.383203,25.3111165 128.615625,25.0095215 C128.848047,24.7079264 129.153792,24.5571289 129.532861,24.5571289 C129.920231,24.5571289 130.230819,24.7100016 130.464624,25.0157471 C130.698429,25.3214925 130.815332,25.7206217 130.815332,26.2131348 C130.815332,26.7637533 130.700505,27.1919352 130.47085,27.4976807 C130.241195,27.8034261 129.931299,27.9562988 129.541162,27.9562988 Z M134.166855,30.2680664 C134.74791,30.2680664 135.210679,30.1006673 135.555161,29.7658691 C135.899644,29.431071 136.071885,28.9731445 136.071885,28.3920898 L136.071885,28.3920898 L136.071885,24.0092773 L135.370469,24.0092773 L135.333115,24.5073242 C135.025986,24.1199544 134.598496,23.9262695 134.050645,23.9262695 C133.516628,23.9262695 133.087754,24.1330973 132.764023,24.5467529 C132.440293,24.9604085 132.278428,25.5172526 132.278428,26.2172852 C132.278428,26.9477539 132.440985,27.5246582 132.766099,27.947998 C133.091213,28.3713379 133.516628,28.5830078 134.042344,28.5830078 C134.573594,28.5830078 134.992783,28.4059245 135.299912,28.0517578 L135.299912,28.0517578 L135.299912,28.4377441 C135.299912,28.8195801 135.195461,29.1156413 134.986558,29.3259277 C134.777655,29.5362142 134.486436,29.6413574 134.1129,29.6413574 C133.636989,29.6413574 133.234401,29.4379883 132.905137,29.03125 L132.905137,29.03125 L132.506699,29.4919434 C132.669948,29.732666 132.90652,29.9222005 133.216416,30.0605469 C133.526312,30.1988932 133.843125,30.2680664 134.166855,30.2680664 Z M134.233262,27.9313965 C133.859727,27.9313965 133.569199,27.7868245 133.36168,27.4976807 C133.15416,27.2085368 133.0504,26.810791 133.0504,26.3044434 C133.0504,25.7344564 133.155544,25.3041992 133.36583,25.0136719 C133.576117,24.7231445 133.868027,24.5778809 134.241562,24.5778809 C134.71194,24.5778809 135.064723,24.7923177 135.299912,25.2211914 L135.299912,25.2211914 L135.299912,27.2714844 C135.073024,27.7114258 134.717474,27.9313965 134.233262,27.9313965 Z M137.912666,28.5 L137.912666,25.3125 C138.092516,24.8836263 138.434232,24.6691895 138.937812,24.6691895 C139.073392,24.6691895 139.199287,24.6788737 139.315498,24.6982422 L139.315498,24.6982422 L139.315498,23.984375 C139.238024,23.945638 139.12458,23.9262695 138.975166,23.9262695 C138.513089,23.9262695 138.156156,24.1268717 137.904365,24.5280762 L137.904365,24.5280762 L137.891914,24.0092773 L137.144844,24.0092773 L137.144844,28.5 L137.912666,28.5 Z M141.156279,28.5830078 C141.651559,28.5830078 142.077666,28.3976237 142.4346,28.0268555 C142.462269,28.2537435 142.498239,28.4114583 142.54251,28.5 L142.54251,28.5 L143.347686,28.5 L143.347686,28.4335938 C143.242542,28.1901042 143.189971,27.8622233 143.189971,27.4499512 L143.189971,27.4499512 L143.189971,25.3830566 C143.178903,24.9292806 143.026722,24.5730387 142.733428,24.3143311 C142.440133,24.0556234 142.034779,23.9262695 141.517363,23.9262695 C141.190866,23.9262695 140.891346,23.9871419 140.618804,24.1088867 C140.346261,24.2306315 140.130441,24.3959554 139.971343,24.6048584 C139.812244,24.8137614 139.732695,25.0302734 139.732695,25.2543945 L139.732695,25.2543945 L140.504668,25.2543945 C140.504668,25.0579427 140.59736,24.8905436 140.782744,24.7521973 C140.968128,24.6138509 141.197783,24.5446777 141.471709,24.5446777 C141.784372,24.5446777 142.020944,24.6242269 142.181426,24.7833252 C142.341908,24.9424235 142.422148,25.1561686 142.422148,25.4245605 L142.422148,25.4245605 L142.422148,25.7773438 L141.675078,25.7773438 C141.030384,25.7773438 140.530262,25.9066976 140.174712,26.1654053 C139.819162,26.424113 139.641387,26.7872721 139.641387,27.2548828 C139.641387,27.6394857 139.783192,27.9569906 140.066802,28.2073975 C140.350412,28.4578044 140.713571,28.5830078 141.156279,28.5830078 Z M141.26834,27.9147949 C141.016549,27.9147949 140.810413,27.8470052 140.649932,27.7114258 C140.48945,27.5758464 140.409209,27.3876953 140.409209,27.1469727 C140.409209,26.5963542 140.879587,26.3210449 141.820342,26.3210449 L141.820342,26.3210449 L142.422148,26.3210449 L142.422148,27.2424316 C142.325306,27.4416504 142.168975,27.6035156 141.953154,27.7280273 C141.737334,27.8525391 141.509062,27.9147949 141.26834,27.9147949 Z M145.072256,28.5 L145.072256,25.2211914 C145.25764,24.7923177 145.602122,24.5778809 146.105703,24.5778809 C146.744863,24.5778809 147.064443,24.9043783 147.064443,25.557373 L147.064443,25.557373 L147.064443,28.5 L147.836416,28.5 L147.836416,25.5200195 C147.866852,25.2322591 147.976146,25.0032959 148.164297,24.8331299 C148.352448,24.6629639 148.58902,24.5778809 148.874014,24.5778809 C149.21988,24.5778809 149.466136,24.65743 149.612783,24.8165283 C149.75943,24.9756266 149.832754,25.2156576 149.832754,25.5366211 L149.832754,25.5366211 L149.832754,28.5 L150.600576,28.5 L150.600576,25.4909668 C150.583975,24.4478353 150.083161,23.9262695 149.098135,23.9262695 C148.771637,23.9262695 148.488719,23.9926758 148.24938,24.1254883 C148.010041,24.2583008 147.815664,24.4326172 147.66625,24.6484375 C147.439362,24.1669922 147.011872,23.9262695 146.383779,23.9262695 C145.82486,23.9262695 145.380768,24.1199544 145.051504,24.5073242 L145.051504,24.5073242 L145.030752,24.0092773 L144.304434,24.0092773 L144.304434,28.5 L145.072256,28.5 Z M70.5856934,39.9506836 L70.7434082,39.4816895 C70.4196777,39.2160645 70.1402181,38.8480632 69.9050293,38.3776855 C69.5148926,37.5918783 69.3198242,36.6649577 69.3198242,35.5969238 L69.3198242,35.5969238 L69.3239746,35.2441406 C69.348877,34.4555664 69.490682,33.7430827 69.7493896,33.1066895 C70.0080973,32.4702962 70.3394368,31.9971517 70.7434082,31.6872559 L70.7434082,31.6872559 L70.5856934,31.1809082 C70.2287598,31.3745931 69.8842773,31.7066243 69.5522461,32.177002 C69.2202148,32.6473796 68.9704997,33.1703288 68.8031006,33.7458496 C68.6357015,34.3213704 68.552002,34.9217936 68.552002,35.5471191 C68.552002,36.8558757 68.8784993,37.9806315 69.5314941,38.9213867 C69.8662923,39.402832 70.2176921,39.745931 70.5856934,39.9506836 L70.5856934,39.9506836 Z M73.8459082,38.0830078 C74.3328874,38.0830078 74.7596859,38.010376 75.1263037,37.8651123 C75.4929215,37.7198486 75.7786068,37.5005697 75.9833594,37.2072754 L75.9833594,37.2072754 L75.9833594,34.9909668 L73.7919531,34.9909668 L73.7919531,35.6384277 L75.1906348,35.6384277 L75.1906348,36.9956055 C75.0439876,37.1533203 74.8586035,37.2653809 74.6344824,37.3317871 C74.4103613,37.3981934 74.1488867,37.4313965 73.8500586,37.4313965 C73.3215755,37.4313965 72.9023861,37.231486 72.5924902,36.831665 C72.2825944,36.4318441 72.1276465,35.892985 72.1276465,35.2150879 L72.1276465,35.2150879 L72.1276465,34.7211914 C72.1304134,34.0100911 72.2694515,33.4670817 72.5447607,33.0921631 C72.82007,32.7172445 73.2247331,32.5297852 73.75875,32.5297852 C74.5611589,32.5297852 75.0370703,32.9296061 75.1864844,33.729248 L75.1864844,33.729248 L75.9833594,33.729248 C75.8975846,33.1371257 75.6623958,32.679891 75.277793,32.3575439 C74.8931901,32.0351969 74.385459,31.8740234 73.7545996,31.8740234 C72.9853939,31.8740234 72.3884294,32.1244303 71.9637061,32.6252441 C71.5389827,33.1260579 71.3266211,33.8316243 71.3266211,34.7419434 L71.3266211,34.7419434 L71.3266211,35.269043 C71.3321549,35.8307292 71.4393734,36.3246257 71.6482764,36.7507324 C71.8571794,37.1768392 72.1525488,37.5054118 72.5343848,37.7364502 C72.9162207,37.9674886 73.3533952,38.0830078 73.8459082,38.0830078 Z M77.8739453,38 L77.8739453,34.8125 C78.0537956,34.3836263 78.3955111,34.1691895 78.8990918,34.1691895 C79.0346712,34.1691895 79.1605664,34.1788737 79.2767773,34.1982422 L79.2767773,34.1982422 L79.2767773,33.484375 C79.1993034,33.445638 79.0858594,33.4262695 78.9364453,33.4262695 C78.4743685,33.4262695 78.1174349,33.6268717 77.8656445,34.0280762 L77.8656445,34.0280762 L77.8531934,33.5092773 L77.106123,33.5092773 L77.106123,38 L77.8739453,38 Z M81.1175586,38.0830078 C81.6128385,38.0830078 82.0389453,37.8976237 82.3958789,37.5268555 C82.4235482,37.7537435 82.4595182,37.9114583 82.5037891,38 L82.5037891,38 L83.3089648,38 L83.3089648,37.9335938 C83.2038216,37.6901042 83.15125,37.3622233 83.15125,36.9499512 L83.15125,36.9499512 L83.15125,34.8830566 C83.1401823,34.4292806 82.9880013,34.0730387 82.694707,33.8143311 C82.4014128,33.5556234 81.9960579,33.4262695 81.4786426,33.4262695 C81.1521452,33.4262695 80.8526253,33.4871419 80.580083,33.6088867 C80.3075407,33.7306315 80.0917204,33.8959554 79.9326221,34.1048584 C79.7735238,34.3137614 79.6939746,34.5302734 79.6939746,34.7543945 L79.6939746,34.7543945 L80.4659473,34.7543945 C80.4659473,34.5579427 80.5586393,34.3905436 80.7440234,34.2521973 C80.9294075,34.1138509 81.1590625,34.0446777 81.4329883,34.0446777 C81.745651,34.0446777 81.9822233,34.1242269 82.1427051,34.2833252 C82.3031868,34.4424235 82.3834277,34.6561686 82.3834277,34.9245605 L82.3834277,34.9245605 L82.3834277,35.2773438 L81.6363574,35.2773438 C80.9916634,35.2773438 80.4915413,35.4066976 80.1359912,35.6654053 C79.7804411,35.924113 79.602666,36.2872721 79.602666,36.7548828 C79.602666,37.1394857 79.744471,37.4569906 80.0280811,37.7073975 C80.3116911,37.9578044 80.6748503,38.0830078 81.1175586,38.0830078 Z M81.2296191,37.4147949 C80.9778288,37.4147949 80.7716927,37.3470052 80.6112109,37.2114258 C80.4507292,37.0758464 80.3704883,36.8876953 80.3704883,36.6469727 C80.3704883,36.0963542 80.8408659,35.8210449 81.7816211,35.8210449 L81.7816211,35.8210449 L82.3834277,35.8210449 L82.3834277,36.7424316 C82.2865853,36.9416504 82.1302539,37.1035156 81.9144336,37.2280273 C81.6986133,37.3525391 81.4703418,37.4147949 81.2296191,37.4147949 Z M85.0376855,38 L85.0376855,34.8000488 C85.1428288,34.5842285 85.2894759,34.4099121 85.4776269,34.2770996 C85.665778,34.1442871 85.8843652,34.0778809 86.1333887,34.0778809 C86.4405176,34.0778809 86.6667139,34.1553548 86.8119775,34.3103027 C86.9572412,34.4652507 87.0312565,34.7045898 87.0340234,35.0283203 L87.0340234,35.0283203 L87.0340234,38 L87.8018457,38 L87.8018457,35.0324707 C87.7935449,33.9616699 87.3148665,33.4262695 86.3658105,33.4262695 C85.8124251,33.4262695 85.3641829,33.6420898 85.021084,34.0737305 L85.021084,34.0737305 L84.9961816,33.5092773 L84.2698633,33.5092773 L84.2698633,38 L85.0376855,38 Z M90.1863281,38.0830078 C90.3772461,38.0830078 90.5736979,38.0553385 90.7756836,38 L90.7756836,38 L90.7756836,37.3774414 C90.6207357,37.4106445 90.4989909,37.4272461 90.4104492,37.4272461 C90.230599,37.4272461 90.1033203,37.3822835 90.0286133,37.2923584 C89.9539062,37.2024333 89.9165527,37.0675456 89.9165527,36.8876953 L89.9165527,36.8876953 L89.9165527,34.1027832 L90.7549316,34.1027832 L90.7549316,33.5092773 L89.9165527,33.5092773 L89.9165527,32.421875 L89.1487305,32.421875 L89.1487305,33.5092773 L88.3311035,33.5092773 L88.3311035,34.1027832 L89.1487305,34.1027832 L89.1487305,36.8876953 C89.1487305,37.2695312 89.2358887,37.564209 89.4102051,37.7717285 C89.5845215,37.979248 89.8432292,38.0830078 90.1863281,38.0830078 Z M94.5070508,38 L94.5070508,33.3432617 L97.5492871,38 L98.3503125,38 L98.3503125,31.9570312 L97.5575879,31.9570312 L97.5575879,36.6345215 L94.5070508,31.9570312 L93.7060254,31.9570312 L93.7060254,38 L94.5070508,38 Z M101.403008,38.0830078 C101.806979,38.0830078 102.164604,37.9861654 102.475884,37.7924805 C102.787163,37.5987956 103.026502,37.3283285 103.193901,36.9810791 C103.3613,36.6338298 103.445,36.2416178 103.445,35.8044434 L103.445,35.8044434 L103.445,35.7504883 C103.445,35.0476888 103.256157,34.4846191 102.878472,34.0612793 C102.500786,33.6379395 102.006198,33.4262695 101.394707,33.4262695 C100.999036,33.4262695 100.646945,33.5217285 100.338433,33.7126465 C100.02992,33.9035645 99.7891976,34.1747233 99.6162646,34.526123 C99.4433317,34.8775228 99.3568652,35.2731934 99.3568652,35.7131348 L99.3568652,35.7131348 L99.3568652,35.7670898 C99.3568652,36.4643555 99.545708,37.0246582 99.9233935,37.447998 C100.301079,37.8713379 100.794284,38.0830078 101.403008,38.0830078 Z M101.403008,37.4562988 C101.015638,37.4562988 100.706434,37.3055013 100.475395,37.0039062 C100.244357,36.7023112 100.128838,36.3024902 100.128838,35.8044434 C100.128838,35.2427572 100.245049,34.8111165 100.477471,34.5095215 C100.709893,34.2079264 101.015638,34.0571289 101.394707,34.0571289 C101.782077,34.0571289 102.092664,34.2100016 102.32647,34.5157471 C102.560275,34.8214925 102.677178,35.2206217 102.677178,35.7131348 C102.677178,36.2637533 102.56235,36.6919352 102.332695,36.9976807 C102.10304,37.3034261 101.793145,37.4562988 101.403008,37.4562988 Z M108.147559,38.0830078 C108.723079,38.0830078 109.187231,37.9280599 109.540015,37.6181641 C109.892798,37.3082682 110.069189,36.8918457 110.069189,36.3688965 C110.069189,36.0396322 109.977189,35.7449544 109.793188,35.4848633 C109.609188,35.2247721 109.359473,35.0269368 109.044043,34.8913574 C109.315202,34.7585449 109.53033,34.5745443 109.689429,34.3393555 C109.848527,34.1041667 109.928076,33.8357747 109.928076,33.5341797 C109.928076,33.0250651 109.764136,32.6210938 109.436255,32.3222656 C109.108374,32.0234375 108.678809,31.8740234 108.147559,31.8740234 C107.613542,31.8740234 107.183284,32.0234375 106.856787,32.3222656 C106.53029,32.6210938 106.367041,33.0250651 106.367041,33.5341797 C106.367041,33.8330078 106.444515,34.1000163 106.599463,34.3352051 C106.754411,34.5703939 106.966081,34.7543945 107.234473,34.887207 C106.919043,35.0227865 106.672095,35.2220052 106.493628,35.4848633 C106.315161,35.7477214 106.225928,36.0423991 106.225928,36.3688965 C106.225928,36.8890788 106.400936,37.3048096 106.750952,37.6160889 C107.100968,37.9273682 107.566504,38.0830078 108.147559,38.0830078 Z M108.147559,34.5759277 C107.84043,34.5759277 107.594865,34.4811605 107.410864,34.291626 C107.226864,34.1020915 107.134863,33.8537598 107.134863,33.5466309 C107.134863,33.2256673 107.228247,32.9718018 107.415015,32.7850342 C107.601782,32.5982666 107.845964,32.5048828 108.147559,32.5048828 C108.440853,32.5048828 108.682959,32.6017253 108.873877,32.7954102 C109.064795,32.9890951 109.160254,33.239502 109.160254,33.5466309 C109.160254,33.8537598 109.068254,34.1020915 108.884253,34.291626 C108.700252,34.4811605 108.454687,34.5759277 108.147559,34.5759277 Z M108.147559,37.4562988 C107.785091,37.4562988 107.502173,37.3580729 107.298804,37.1616211 C107.095435,36.9651693 106.99375,36.6953939 106.99375,36.3522949 C106.99375,36.009196 107.098201,35.7325033 107.307104,35.5222168 C107.516007,35.3119303 107.793392,35.2067871 108.139258,35.2067871 C108.485124,35.2067871 108.765275,35.3133138 108.979712,35.5263672 C109.194149,35.7394206 109.301367,36.0147298 109.301367,36.3522949 C109.301367,36.692627 109.198991,36.9617106 108.994238,37.1595459 C108.789486,37.3573812 108.507259,37.4562988 108.147559,37.4562988 Z M114.192686,38 L114.192686,36.597168 L115.031064,36.597168 L115.031064,35.970459 L114.192686,35.970459 L114.192686,31.9570312 L113.375059,31.9570312 L110.669004,36.1447754 L110.669004,36.597168 L113.420713,36.597168 L113.420713,38 L114.192686,38 Z M113.420713,35.970459 L111.540586,35.970459 L113.329404,33.1730957 L113.420713,33.0070801 L113.420713,35.970459 Z M117.523457,38.0830078 C118.098978,38.0830078 118.56313,37.9280599 118.915913,37.6181641 C119.268696,37.3082682 119.445088,36.8918457 119.445088,36.3688965 C119.445088,36.0396322 119.353088,35.7449544 119.169087,35.4848633 C118.985086,35.2247721 118.735371,35.0269368 118.419941,34.8913574 C118.6911,34.7585449 118.906229,34.5745443 119.065327,34.3393555 C119.224425,34.1041667 119.303975,33.8357747 119.303975,33.5341797 C119.303975,33.0250651 119.140034,32.6210938 118.812153,32.3222656 C118.484272,32.0234375 118.054707,31.8740234 117.523457,31.8740234 C116.98944,31.8740234 116.559183,32.0234375 116.232686,32.3222656 C115.906188,32.6210938 115.742939,33.0250651 115.742939,33.5341797 C115.742939,33.8330078 115.820413,34.1000163 115.975361,34.3352051 C116.130309,34.5703939 116.341979,34.7543945 116.610371,34.887207 C116.294941,35.0227865 116.047993,35.2220052 115.869526,35.4848633 C115.69106,35.7477214 115.601826,36.0423991 115.601826,36.3688965 C115.601826,36.8890788 115.776834,37.3048096 116.126851,37.6160889 C116.476867,37.9273682 116.942402,38.0830078 117.523457,38.0830078 Z M117.523457,34.5759277 C117.216328,34.5759277 116.970763,34.4811605 116.786763,34.291626 C116.602762,34.1020915 116.510762,33.8537598 116.510762,33.5466309 C116.510762,33.2256673 116.604145,32.9718018 116.790913,32.7850342 C116.977681,32.5982666 117.221862,32.5048828 117.523457,32.5048828 C117.816751,32.5048828 118.058857,32.6017253 118.249775,32.7954102 C118.440693,32.9890951 118.536152,33.239502 118.536152,33.5466309 C118.536152,33.8537598 118.444152,34.1020915 118.260151,34.291626 C118.076151,34.4811605 117.830586,34.5759277 117.523457,34.5759277 Z M117.523457,37.4562988 C117.16099,37.4562988 116.878071,37.3580729 116.674702,37.1616211 C116.471333,36.9651693 116.369648,36.6953939 116.369648,36.3522949 C116.369648,36.009196 116.4741,35.7325033 116.683003,35.5222168 C116.891906,35.3119303 117.16929,35.2067871 117.515156,35.2067871 C117.861022,35.2067871 118.141173,35.3133138 118.35561,35.5263672 C118.570047,35.7394206 118.677266,36.0147298 118.677266,36.3522949 C118.677266,36.692627 118.574889,36.9617106 118.370137,37.1595459 C118.165384,37.3573812 117.883158,37.4562988 117.523457,37.4562988 Z M122.348369,38.0830078 C122.951559,38.0830078 123.421245,37.9038493 123.757427,37.5455322 C124.093608,37.1872152 124.261699,36.6967773 124.261699,36.0742188 C124.261699,35.4544271 124.099834,34.9626058 123.776103,34.5987549 C123.452373,34.234904 123.015199,34.0529785 122.46458,34.0529785 C122.088278,34.0529785 121.752096,34.1401367 121.456035,34.3144531 L121.456035,34.3144531 L121.638652,32.666748 L124.083232,32.666748 L124.083232,31.9570312 L120.987041,31.9570312 L120.679912,34.9702148 L121.29417,35.1279297 L121.497539,34.9619141 C121.688457,34.8152669 121.951315,34.7419434 122.286113,34.7419434 C122.651348,34.7419434 122.94395,34.8643799 123.163921,35.1092529 C123.383892,35.354126 123.493877,35.6785482 123.493877,36.0825195 C123.493877,36.5113932 123.392192,36.8475749 123.188823,37.0910645 C122.985454,37.334554 122.705303,37.4562988 122.348369,37.4562988 C122.021872,37.4562988 121.759014,37.3684489 121.559795,37.192749 C121.360576,37.0170492 121.237448,36.7562663 121.19041,36.4104004 L121.19041,36.4104004 L120.464092,36.4104004 C120.51113,36.9333496 120.703431,37.3428548 121.040996,37.638916 C121.378561,37.9349772 121.814352,38.0830078 122.348369,38.0830078 Z M127.036318,38.0830078 C127.639508,38.0830078 128.109194,37.9038493 128.445376,37.5455322 C128.781558,37.1872152 128.949648,36.6967773 128.949648,36.0742188 C128.949648,35.4544271 128.787783,34.9626058 128.464053,34.5987549 C128.140322,34.234904 127.703148,34.0529785 127.152529,34.0529785 C126.776227,34.0529785 126.440046,34.1401367 126.143984,34.3144531 L126.143984,34.3144531 L126.326602,32.666748 L128.771182,32.666748 L128.771182,31.9570312 L125.67499,31.9570312 L125.367861,34.9702148 L125.982119,35.1279297 L126.185488,34.9619141 C126.376406,34.8152669 126.639264,34.7419434 126.974062,34.7419434 C127.339297,34.7419434 127.631899,34.8643799 127.85187,35.1092529 C128.071841,35.354126 128.181826,35.6785482 128.181826,36.0825195 C128.181826,36.5113932 128.080142,36.8475749 127.876772,37.0910645 C127.673403,37.334554 127.393252,37.4562988 127.036318,37.4562988 C126.709821,37.4562988 126.446963,37.3684489 126.247744,37.192749 C126.048525,37.0170492 125.925397,36.7562663 125.878359,36.4104004 L125.878359,36.4104004 L125.152041,36.4104004 C125.199079,36.9333496 125.39138,37.3428548 125.728945,37.638916 C126.06651,37.9349772 126.502301,38.0830078 127.036318,38.0830078 Z M132.944482,38 L132.944482,36.597168 L133.782861,36.597168 L133.782861,35.970459 L132.944482,35.970459 L132.944482,31.9570312 L132.126855,31.9570312 L129.420801,36.1447754 L129.420801,36.597168 L132.17251,36.597168 L132.17251,38 L132.944482,38 Z M132.17251,35.970459 L130.292383,35.970459 L132.081201,33.1730957 L132.17251,33.0070801 L132.17251,35.970459 Z M134.208359,39.9506836 C134.573594,39.7486979 134.922918,39.4083659 135.256333,38.9296875 C135.589748,38.4510091 135.837388,37.9287516 135.999253,37.362915 C136.161118,36.7970785 136.242051,36.2056478 136.242051,35.588623 C136.242051,34.9383952 136.159735,34.3282878 135.995103,33.7583008 C135.83047,33.1883138 135.58283,32.666748 135.252183,32.1936035 C134.921535,31.720459 134.573594,31.3828939 134.208359,31.1809082 L134.208359,31.1809082 L134.046494,31.6499023 C134.317653,31.8712565 134.561834,32.1797689 134.779038,32.5754395 C134.996242,32.97111 135.165716,33.4186605 135.287461,33.9180908 C135.409206,34.4175212 135.470078,34.9577637 135.470078,35.5388184 L135.470078,35.5388184 L135.470078,35.6716309 C135.464544,36.5100098 135.332423,37.2729899 135.073716,37.9605713 C134.815008,38.6481527 134.472601,39.1551921 134.046494,39.4816895 L134.046494,39.4816895 L134.208359,39.9506836 Z" id="ThisprojectissupportedbytheEuropeanUnion'sHorizon2020program(GrantNo848554)" fill="#FFFFFF" fill-rule="nonzero"></path>
    </g>
</svg>