<svg xmlns="http://www.w3.org/2000/svg" viewBox="0 0 200 49"><g fill="none" fill-rule="evenodd"><g fill="#fff"><path d="M36.742 7.395c.395.25.857.395 1.483.395.829 0 1.513-.424 1.513-1.377 0-1.32-3.083-1.484-3.083-3.246 0-1.08.944-1.754 2.13-1.754.326 0 .856.049 1.319.222l-.106.607c-.299-.164-.771-.25-1.224-.25-.693 0-1.454.288-1.454 1.155 0 1.349 3.082 1.358 3.082 3.323 0 1.359-1.165 1.898-2.206 1.898-.655 0-1.165-.135-1.521-.29l.067-.683M45.572 3.874c-.327-.144-.722-.25-1.05-.25-1.184 0-1.85.858-1.85 2.052 0 1.117.675 2.052 1.783 2.052.385 0 .742-.087 1.108-.222l.058.568c-.415.144-.8.173-1.262.173-1.58 0-2.35-1.204-2.35-2.571 0-1.513.972-2.572 2.427-2.572a3.68 3.68 0 0 1 1.185.192l-.049.578M47.361 1.132h.607v3.14h.02c.26-.54.809-.944 1.53-.944 1.32 0 1.677.877 1.677 2.09v2.938h-.607V5.428c0-.848-.163-1.58-1.165-1.58-1.079 0-1.455 1.021-1.455 1.879v2.629h-.607V1.132M58.455 8.298h-.732l-1.338-4.247h-.02l-1.339 4.247h-.732l-1.58-4.912h.665l1.29 4.248h.02l1.368-4.248h.732l1.3 4.248h.02l1.357-4.248h.607l-1.618 4.912"/><path d="M64.81 5.329c0-.857-.346-1.705-1.251-1.705-.897 0-1.446.896-1.446 1.705zm.3 2.649a4.02 4.02 0 0 1-1.427.27c-1.627 0-2.234-1.099-2.234-2.572 0-1.503.829-2.572 2.07-2.572 1.388 0 1.956 1.117 1.956 2.437v.308h-3.362c0 1.04.56 1.879 1.619 1.879.443 0 1.088-.183 1.377-.366zM67.366 3.25h.606v4.913h-.606zm.606-1.31h-.606v-.808h.606z" fill-rule="nonzero"/><path d="M69.901 7.788l2.957-3.882h-2.841v-.52h3.544v.52l-2.956 3.872h2.956v.52h-3.66v-.51"/><path d="M78.334 5.329c0-.857-.346-1.705-1.251-1.705-.897 0-1.446.896-1.446 1.705zm.3 2.649a4.02 4.02 0 0 1-1.427.27c-1.627 0-2.234-1.099-2.234-2.572 0-1.503.829-2.572 2.07-2.572C78.432 3.104 79 4.22 79 5.54v.308h-3.362c0 1.04.56 1.879 1.619 1.879.443 0 1.088-.183 1.377-.366z" fill-rule="nonzero"/><path d="M80.928 4.317c0-.539 0-.741-.038-1.098h.606v.944h.02c.221-.548.635-1.06 1.261-1.06.145 0 .318.03.424.059v.636a1.58 1.58 0 0 0-.443-.058c-.963 0-1.223 1.079-1.223 1.964v2.428h-.607V4.317"/><path d="M84.834 3.25h.607v4.913h-.607zm.607-1.31h-.607v-.808h.607z" fill-rule="nonzero"/><path d="M87.427 7.42c.366.182.81.308 1.281.308.578 0 1.089-.319 1.089-.877 0-1.165-2.36-.982-2.36-2.408 0-.973.79-1.34 1.599-1.34.26 0 .78.059 1.213.223l-.058.53a2.859 2.859 0 0 0-1.088-.232c-.626 0-1.06.193-1.06.819 0 .915 2.418.8 2.418 2.408 0 1.04-.973 1.396-1.714 1.396-.472 0-.944-.057-1.377-.23l.057-.598M95.442 3.874c-.328-.144-.722-.25-1.05-.25-1.185 0-1.85.858-1.85 2.052 0 1.117.675 2.052 1.782 2.052.386 0 .742-.087 1.108-.222l.058.568c-.414.144-.8.173-1.262.173-1.58 0-2.35-1.204-2.35-2.571 0-1.513.972-2.572 2.427-2.572a3.68 3.68 0 0 1 1.185.192l-.048.578M97.23 1.132h.608v3.14h.02c.26-.54.808-.944 1.53-.944 1.32 0 1.676.877 1.676 2.09v2.938h-.606V5.428c0-.848-.164-1.58-1.166-1.58-1.078 0-1.454 1.021-1.454 1.879v2.629h-.607V1.132"/><path d="M106.227 5.329c0-.857-.346-1.705-1.251-1.705-.897 0-1.446.896-1.446 1.705zm.3 2.649a4.02 4.02 0 0 1-1.427.27c-1.627 0-2.234-1.099-2.234-2.572 0-1.503.829-2.572 2.07-2.572 1.388 0 1.956 1.117 1.956 2.437v.308h-3.362c0 1.04.56 1.879 1.619 1.879.443 0 1.088-.183 1.377-.366z" fill-rule="nonzero"/><path d="M112.164 1.413h3.293v.578h-2.629V4.39h2.495v.578h-2.495v2.591h2.745v.578h-3.41V1.413"/><path d="M117.517 3.25h.607v4.913h-.607zm.607-1.31h-.607v-.808h.607zM122.172 7.952c1.078 0 1.454-1.157 1.454-2.052 0-.896-.376-2.052-1.454-2.052-1.156 0-1.455 1.098-1.455 2.052s.299 2.052 1.455 2.052zm2.061.404h-.607v-.78h-.019c-.328.626-.829.895-1.532.895-1.348 0-2.022-1.117-2.022-2.571 0-1.493.577-2.572 2.022-2.572.963 0 1.445.703 1.532.944h.019v-3.14h.607zM128.332 7.612c1.098 0 1.493-1.04 1.493-1.936 0-1.185-.347-2.052-1.454-2.052-1.156 0-1.455 1.098-1.455 2.052 0 .963.385 1.936 1.416 1.936zm2.1.116c0 1.367-.616 2.484-2.301 2.484-.646 0-1.234-.183-1.484-.26l.047-.607c.376.194.915.348 1.446.348 1.56 0 1.695-1.137 1.695-2.524h-.019c-.327.712-.868.963-1.493.963-1.571 0-2.072-1.368-2.072-2.456 0-1.493.578-2.572 2.023-2.572.655 0 1.079.086 1.532.674h.019V3.22h.607zM135.81 5.329c0-.857-.347-1.705-1.252-1.705-.896 0-1.445.896-1.445 1.705zm.3 2.649a4.02 4.02 0 0 1-1.427.27c-1.628 0-2.234-1.099-2.234-2.572 0-1.503.828-2.572 2.071-2.572 1.386 0 1.955 1.117 1.955 2.437v.308h-3.362c0 1.04.56 1.879 1.619 1.879.443 0 1.088-.183 1.377-.366z" fill-rule="nonzero"/><path d="M138.123 4.376c0-.376 0-.761-.039-1.157h.588v.877h.02c.201-.443.567-.992 1.589-.992 1.214 0 1.675.81 1.675 1.888v3.14h-.606V5.146c0-.925-.327-1.522-1.165-1.522-1.108 0-1.455.973-1.455 1.792v2.716h-.607V4.376"/><path d="M146.294 7.728c1.059 0 1.627-.915 1.627-2.052s-.568-2.052-1.627-2.052c-1.06 0-1.63.915-1.63 2.052s.57 2.052 1.63 2.052zm0-4.624c1.589 0 2.292 1.233 2.292 2.572 0 1.338-.703 2.571-2.292 2.571-1.59 0-2.293-1.233-2.293-2.571 0-1.34.704-2.572 2.293-2.572z" fill-rule="nonzero"/><path d="M149.976 7.42c.365.182.81.308 1.28.308.578 0 1.09-.319 1.09-.877 0-1.165-2.36-.982-2.36-2.408 0-.973.79-1.34 1.598-1.34.26 0 .78.059 1.213.223l-.056.53a2.862 2.862 0 0 0-1.089-.232c-.626 0-1.06.193-1.06.819 0 .915 2.418.8 2.418 2.408 0 1.04-.973 1.396-1.715 1.396-.472 0-.943-.057-1.377-.23l.058-.598M154.484 7.42c.365.182.81.308 1.28.308.578 0 1.09-.319 1.09-.877 0-1.165-2.361-.982-2.361-2.408 0-.973.79-1.34 1.6-1.34.26 0 .78.059 1.212.223l-.058.53a2.85 2.85 0 0 0-1.087-.232c-.626 0-1.06.193-1.06.819 0 .915 2.418.8 2.418 2.408 0 1.04-.973 1.396-1.715 1.396-.472 0-.943-.057-1.377-.23l.058-.598"/><path d="M162.578 5.329c0-.857-.348-1.705-1.253-1.705-.896 0-1.446.896-1.446 1.705zm.297 2.649c-.423.173-.971.27-1.425.27-1.627 0-2.234-1.099-2.234-2.572 0-1.503.828-2.572 2.07-2.572 1.388 0 1.956 1.117 1.956 2.437v.308h-3.363c0 1.04.56 1.879 1.619 1.879.443 0 1.088-.183 1.377-.366z" fill-rule="nonzero"/><path d="M165.17 4.376c0-.376 0-.761-.038-1.157h.588v.877h.02c.201-.443.567-.992 1.589-.992 1.213 0 1.675.81 1.675 1.888v3.14h-.606V5.146c0-.925-.327-1.522-1.166-1.522-1.107 0-1.454.973-1.454 1.792v2.716h-.607V4.376M170.826 7.42c.366.182.809.308 1.281.308.578 0 1.088-.319 1.088-.877 0-1.165-2.36-.982-2.36-2.408 0-.973.79-1.34 1.6-1.34.259 0 .78.059 1.213.223l-.058.53a2.857 2.857 0 0 0-1.089-.232c-.625 0-1.059.193-1.059.819 0 .915 2.419.8 2.419 2.408 0 1.04-.974 1.396-1.715 1.396-.472 0-.945-.057-1.379-.23l.06-.598M178.84 3.874c-.327-.144-.723-.25-1.05-.25-1.185 0-1.85.858-1.85 2.052 0 1.117.674 2.052 1.782 2.052.386 0 .742-.087 1.109-.222l.056.568c-.413.144-.8.173-1.26.173-1.58 0-2.352-1.204-2.352-2.571 0-1.513.973-2.572 2.429-2.572.587 0 1.01.135 1.183.192l-.047.578M180.628 1.132h.606v3.14h.02c.26-.54.81-.944 1.531-.944 1.32 0 1.676.877 1.676 2.09v2.938h-.605V5.428c0-.848-.165-1.58-1.166-1.58-1.08 0-1.456 1.021-1.456 1.879v2.629h-.606V1.132"/><path d="M189.403 5.656h-.172c-1.051 0-2.301.107-2.301 1.185 0 .645.46.887 1.019.887 1.426 0 1.454-1.243 1.454-1.773zm.058 1.686h-.018c-.27.588-.955.905-1.561.905-1.397 0-1.619-.944-1.619-1.387 0-1.646 1.754-1.723 3.025-1.723h.115v-.251c0-.838-.298-1.262-1.117-1.262-.51 0-.99.116-1.445.404v-.587a3.873 3.873 0 0 1 1.445-.337c1.213 0 1.724.549 1.724 1.83v2.168c0 .394 0 .693.05 1.03h-.599z" fill-rule="nonzero"/><path d="M192.89 3.797h-.992v-.52h.991V2.92c0-1.03.039-2.071 1.302-2.071.191 0 .452.029.567.096l-.038.53a1.074 1.074 0 0 0-.482-.106c-.829 0-.742.896-.742 1.483v.424h1.108v.52h-1.108V8.19h-.607V3.797M198.53 3.894h-1.117v3.179c0 .443.164.809.656.809.23 0 .385-.048.557-.116l.04.5a2.22 2.22 0 0 1-.742.136c-1.079 0-1.118-.742-1.118-1.638v-2.87h-.963v-.52h.963V2.188l.607-.212v1.396h1.117v.52"/></g><path d="M29.298 3.363s-5.094-2.231-13.623-2.231h-.003c-8.53 0-13.625 2.231-13.625 2.231s-.456 9.88 1.478 15.465C6.94 28.65 15.67 31.41 15.67 31.41h.005s8.728-2.759 12.146-12.58c1.934-5.587 1.476-15.466 1.476-15.466" fill="red"/><path fill="#fff" d="M24.652 11.989v5.443h-6.35v6.35h-5.443v-6.35H6.508v-5.443h6.35v-6.35H18.3l.002 6.35h6.35"/><g fill="#fff"><path d="M41.548 15.522c-.423-.22-1.03-.288-1.503-.288-1.743 0-2.726 1.232-2.726 2.899 0 1.695.954 2.899 2.726 2.899.443 0 1.118-.058 1.503-.289l.039.578c-.366.222-1.117.289-1.542.289-2.119 0-3.39-1.397-3.39-3.477 0-2.042 1.31-3.477 3.39-3.477.395 0 1.195.067 1.542.25l-.039.616"/><path d="M45.71 21.252c1.06 0 1.627-.915 1.627-2.052s-.568-2.052-1.628-2.052c-1.059 0-1.628.915-1.628 2.052s.569 2.052 1.628 2.052zm0-4.624c1.589 0 2.292 1.233 2.292 2.572 0 1.338-.703 2.571-2.293 2.571-1.589 0-2.292-1.233-2.292-2.571 0-1.34.703-2.572 2.292-2.572z" fill-rule="nonzero"/><path d="M49.935 17.9c0-.376 0-.761-.038-1.157h.587v.877h.02c.202-.443.568-.992 1.589-.992 1.214 0 1.676.81 1.676 1.888v3.14h-.607V18.67c0-.925-.327-1.522-1.165-1.522-1.108 0-1.455.973-1.455 1.792v2.716h-.607V17.9M56.524 17.04h-.992v-.52h.992v-.357c0-1.03.039-2.07 1.3-2.07.193 0 .454.028.569.095l-.038.53a1.073 1.073 0 0 0-.482-.106c-.828 0-.742.896-.742 1.483v.424h1.108v.52H57.13v4.393h-.607v-4.393"/><path d="M62.109 14.656h.76l-1.213 1.387h-.443zm1.01 4.007c0-.858-.346-1.705-1.25-1.705-.897 0-1.446.896-1.446 1.705zm.3 2.648a4.02 4.02 0 0 1-1.426.27c-1.628 0-2.235-1.098-2.235-2.572 0-1.502.829-2.571 2.071-2.571 1.387 0 1.956 1.117 1.956 2.437v.308h-3.362c0 1.04.559 1.878 1.618 1.878.443 0 1.089-.183 1.378-.366zM67.513 21.194c1.078 0 1.454-1.157 1.454-2.052 0-.896-.376-2.052-1.454-2.052-1.156 0-1.455 1.099-1.455 2.052 0 .954.299 2.052 1.455 2.052zm2.061.404h-.607v-.78h-.02c-.327.626-.828.896-1.531.896-1.348 0-2.023-1.118-2.023-2.572 0-1.493.578-2.572 2.023-2.572.963 0 1.445.703 1.532.944h.019v-3.14h.607zM73.66 14.656h.762l-1.215 1.387h-.442zm1.012 4.007c0-.858-.347-1.705-1.252-1.705-.896 0-1.445.896-1.445 1.705zm.299 2.648a4.02 4.02 0 0 1-1.426.27c-1.628 0-2.235-1.098-2.235-2.572 0-1.502.829-2.571 2.071-2.571 1.387 0 1.956 1.117 1.956 2.437v.308h-3.362c0 1.04.559 1.878 1.618 1.878.443 0 1.089-.183 1.378-.366z" fill-rule="nonzero"/><path d="M77.265 17.841c0-.539 0-.741-.038-1.098h.607v.945h.018c.222-.55.637-1.06 1.263-1.06.144 0 .318.029.423.058v.636a1.585 1.585 0 0 0-.443-.059c-.963 0-1.223 1.08-1.223 1.965v2.428h-.607v-3.815"/><path d="M84.03 19.18h-.174c-1.05 0-2.302.107-2.302 1.185 0 .645.462.887 1.021.887 1.425 0 1.455-1.243 1.455-1.773zm.057 1.686h-.019c-.27.588-.953.905-1.56.905-1.397 0-1.618-.944-1.618-1.387 0-1.646 1.753-1.723 3.024-1.723h.116v-.251c0-.838-.3-1.262-1.118-1.262-.51 0-.992.115-1.445.404v-.587a3.867 3.867 0 0 1 1.445-.337c1.214 0 1.724.549 1.724 1.83v2.168c0 .394 0 .693.049 1.03h-.598z" fill-rule="nonzero"/><path d="M88.93 17.136h-1.117v3.179c0 .443.164.81.655.81.231 0 .385-.05.559-.117l.038.5a2.218 2.218 0 0 1-.741.136c-1.079 0-1.118-.742-1.118-1.638v-2.87h-.963v-.52h.963V15.43l.607-.212v1.397h1.117v.52"/><path d="M90.75 16.492h.607v4.913h-.606zm.607-1.31h-.606v-.808h.606zM95.579 21.252c1.06 0 1.627-.915 1.627-2.052s-.568-2.052-1.627-2.052c-1.06 0-1.628.915-1.628 2.052s.568 2.052 1.628 2.052zm0-4.624c1.59 0 2.292 1.233 2.292 2.572 0 1.338-.703 2.571-2.292 2.571-1.59 0-2.293-1.233-2.293-2.571 0-1.34.704-2.572 2.293-2.572z" fill-rule="nonzero"/><path d="M99.805 17.9c0-.376 0-.761-.038-1.157h.587v.877h.02c.201-.443.567-.992 1.588-.992 1.214 0 1.676.81 1.676 1.888v3.14h-.606V18.67c0-.925-.328-1.522-1.166-1.522-1.108 0-1.454.973-1.454 1.792v2.716h-.607V17.9M108.84 20.943c.367.183.81.309 1.282.309.578 0 1.088-.319 1.088-.877 0-1.165-2.36-.982-2.36-2.408 0-.973.79-1.34 1.6-1.34.26 0 .78.059 1.213.222l-.058.53a2.858 2.858 0 0 0-1.088-.23c-.626 0-1.06.192-1.06.818 0 .915 2.418.8 2.418 2.408 0 1.04-.973 1.396-1.715 1.396-.472 0-.944-.057-1.377-.23l.058-.598M117.687 20.385c0 .375 0 .76.04 1.156h-.589v-.877h-.018c-.203.443-.569.992-1.59.992-1.213 0-1.676-.81-1.676-1.888v-3.14h.607v2.986c0 .925.328 1.522 1.166 1.522 1.107 0 1.454-.973 1.454-1.792v-2.716h.606v3.757"/><path d="M119.77 16.492h.608v4.913h-.607zm.608-1.31h-.607v-.808h.607z" fill-rule="nonzero"/><path d="M122.364 20.943c.366.183.81.309 1.281.309.578 0 1.088-.319 1.088-.877 0-1.165-2.36-.982-2.36-2.408 0-.973.79-1.34 1.6-1.34.26 0 .78.059 1.213.222l-.058.53a2.858 2.858 0 0 0-1.088-.23c-.626 0-1.06.192-1.06.818 0 .915 2.418.8 2.418 2.408 0 1.04-.973 1.396-1.714 1.396-.472 0-.944-.057-1.377-.23l.057-.598M126.873 20.943c.367.183.81.309 1.282.309.577 0 1.087-.319 1.087-.877 0-1.165-2.36-.982-2.36-2.408 0-.973.79-1.34 1.6-1.34.26 0 .78.059 1.213.222l-.058.53a2.856 2.856 0 0 0-1.088-.23c-.625 0-1.06.192-1.06.818 0 .915 2.42.8 2.42 2.408 0 1.04-.975 1.396-1.716 1.396-.472 0-.944-.057-1.378-.23l.058-.598"/><path d="M134.684 18.853c0-.857-.346-1.705-1.251-1.705-.897 0-1.446.896-1.446 1.705zm.3 2.649c-.425.173-.974.27-1.427.27-1.627 0-2.235-1.099-2.235-2.572 0-1.503.83-2.572 2.071-2.572 1.388 0 1.956 1.117 1.956 2.437v.308h-3.362c0 1.04.559 1.879 1.618 1.879.444 0 1.088-.183 1.378-.366z" fill-rule="nonzero"/></g><g fill="#fff"><path d="M41.548 28.765c-.423-.222-1.03-.29-1.503-.29-1.743 0-2.726 1.234-2.726 2.9 0 1.695.954 2.9 2.726 2.9.443 0 1.118-.059 1.503-.29l.039.578c-.366.222-1.117.289-1.542.289-2.119 0-3.39-1.396-3.39-3.477 0-2.042 1.31-3.477 3.39-3.477.395 0 1.195.067 1.542.25l-.039.617"/><path d="M45.71 34.494c1.06 0 1.627-.915 1.627-2.052s-.568-2.052-1.628-2.052c-1.059 0-1.628.915-1.628 2.052s.569 2.052 1.628 2.052zm0-4.624c1.589 0 2.292 1.233 2.292 2.572s-.703 2.571-2.293 2.571c-1.589 0-2.292-1.232-2.292-2.571 0-1.34.703-2.572 2.292-2.572z" fill-rule="nonzero"/><path d="M49.935 31.142c0-.376 0-.761-.038-1.157h.587v.877h.02c.202-.443.568-.992 1.589-.992 1.214 0 1.676.81 1.676 1.888v3.14h-.607v-2.986c0-.924-.327-1.522-1.165-1.522-1.108 0-1.455.973-1.455 1.792v2.716h-.607v-3.756M56.524 30.281h-.992v-.52h.992v-.356c0-1.03.039-2.07 1.3-2.07.193 0 .454.028.569.096l-.038.53a1.073 1.073 0 0 0-.482-.106c-.828 0-.742.895-.742 1.483v.423h1.108v.52H57.13v4.393h-.607v-4.393"/><path d="M62.838 32.095c0-.857-.347-1.705-1.252-1.705-.896 0-1.445.896-1.445 1.705zm.3 2.649a4.02 4.02 0 0 1-1.427.27c-1.628 0-2.234-1.099-2.234-2.572 0-1.503.828-2.572 2.07-2.572 1.388 0 1.956 1.118 1.956 2.437v.308h-3.362c0 1.04.56 1.879 1.618 1.879.443 0 1.09-.183 1.378-.366zM67.23 34.436c1.08 0 1.455-1.156 1.455-2.052 0-.896-.376-2.051-1.454-2.051-1.156 0-1.455 1.098-1.455 2.05 0 .955.299 2.053 1.455 2.053zm2.062.404h-.607v-.78h-.019c-.328.626-.829.896-1.532.896-1.348 0-2.022-1.117-2.022-2.572 0-1.493.578-2.572 2.022-2.572.964 0 1.445.704 1.532.944h.019v-3.14h.607zM74.672 32.095c0-.857-.347-1.705-1.252-1.705-.896 0-1.445.896-1.445 1.705zm.299 2.649c-.424.174-.973.27-1.426.27-1.628 0-2.235-1.099-2.235-2.572 0-1.503.829-2.572 2.071-2.572 1.387 0 1.956 1.118 1.956 2.437v.308h-3.362c0 1.04.559 1.879 1.618 1.879.443 0 1.089-.183 1.378-.366z" fill-rule="nonzero"/><path d="M77.265 31.083c0-.539 0-.741-.038-1.098h.607v.944h.018c.222-.548.637-1.059 1.263-1.059.144 0 .318.029.423.058v.636a1.583 1.583 0 0 0-.443-.058c-.963 0-1.223 1.079-1.223 1.965v2.427h-.607v-3.815"/><path d="M84.03 32.422h-.174c-1.05 0-2.302.107-2.302 1.185 0 .646.462.887 1.021.887 1.425 0 1.455-1.243 1.455-1.773zm.057 1.686h-.019c-.27.588-.953.905-1.56.905-1.397 0-1.618-.944-1.618-1.387 0-1.646 1.753-1.723 3.024-1.723h.116v-.251c0-.838-.3-1.262-1.118-1.262-.51 0-.992.116-1.445.405v-.588a3.867 3.867 0 0 1 1.445-.337c1.214 0 1.724.55 1.724 1.83v2.168c0 .395 0 .693.049 1.03h-.598z" fill-rule="nonzero"/><path d="M86.243 34.273L89.2 30.39h-2.842v-.52h3.544v.52l-2.956 3.872h2.956v.52h-3.66v-.51"/><path d="M91.596 30.016h.607v4.913h-.607zm.607-1.31h-.607v-.808h.607zM96.424 34.494c1.06 0 1.628-.915 1.628-2.052s-.568-2.052-1.628-2.052-1.628.915-1.628 2.052.569 2.052 1.628 2.052zm0-4.624c1.59 0 2.293 1.233 2.293 2.572s-.704 2.571-2.293 2.571c-1.59 0-2.292-1.232-2.292-2.571 0-1.34.703-2.572 2.292-2.572z" fill-rule="nonzero"/><path d="M100.65 31.142c0-.376 0-.761-.038-1.157h.587v.877h.02c.202-.443.567-.992 1.589-.992 1.214 0 1.676.81 1.676 1.888v3.14h-.607v-2.986c0-.924-.327-1.522-1.165-1.522-1.108 0-1.455.973-1.455 1.792v2.716h-.607v-3.756"/><path d="M109.89 32.095c0-.857-.347-1.705-1.252-1.705-.896 0-1.445.896-1.445 1.705zm.299 2.649a4.02 4.02 0 0 1-1.426.27c-1.628 0-2.234-1.099-2.234-2.572 0-1.503.828-2.572 2.07-2.572 1.388 0 1.956 1.118 1.956 2.437v.308h-3.362c0 1.04.56 1.879 1.618 1.879.443 0 1.089-.183 1.378-.366z" fill-rule="nonzero"/><path d="M115.632 33.88c.395.25.857.394 1.483.394.828 0 1.512-.424 1.512-1.377 0-1.32-3.082-1.484-3.082-3.246 0-1.079.944-1.753 2.129-1.753.327 0 .857.048 1.32.22l-.107.608c-.298-.164-.77-.25-1.223-.25-.694 0-1.454.289-1.454 1.156 0 1.348 3.081 1.358 3.081 3.323 0 1.358-1.165 1.897-2.205 1.897-.655 0-1.165-.135-1.522-.289l.068-.684M122.995 34.783h-.712l-1.667-4.913h.665l1.358 4.248h.02l1.425-4.248h.636l-1.725 4.913"/><path d="M126.251 30.016h.607v4.913h-.607zm.607-1.31h-.607v-.808h.607z" fill-rule="nonzero"/><path d="M128.787 34.273l2.957-3.883h-2.842v-.52h3.544v.52l-2.956 3.872h2.956v.52h-3.66v-.51M133.858 34.273l2.958-3.883h-2.842v-.52h3.544v.52l-2.956 3.872h2.956v.52h-3.66v-.51"/><path d="M142.29 32.095c0-.857-.346-1.705-1.251-1.705-.896 0-1.446.896-1.446 1.705zm.3 2.649c-.424.174-.972.27-1.425.27-1.63 0-2.235-1.099-2.235-2.572 0-1.503.828-2.572 2.07-2.572 1.388 0 1.955 1.118 1.955 2.437v.308h-3.362c0 1.04.56 1.879 1.619 1.879.443 0 1.089-.183 1.377-.366z" fill-rule="nonzero"/><path d="M144.884 31.083c0-.539 0-.741-.038-1.098h.606v.944h.02c.222-.548.635-1.059 1.261-1.059.145 0 .319.029.424.058v.636a1.578 1.578 0 0 0-.443-.058c-.963 0-1.223 1.079-1.223 1.965v2.427h-.607v-3.815"/><path d="M151.649 32.422h-.173c-1.05 0-2.303.107-2.303 1.185 0 .646.463.887 1.022.887 1.424 0 1.454-1.243 1.454-1.773zm.058 1.686h-.02c-.27.588-.953.905-1.56.905-1.397 0-1.618-.944-1.618-1.387 0-1.646 1.754-1.723 3.024-1.723h.116v-.251c0-.838-.3-1.262-1.117-1.262-.51 0-.992.116-1.445.405v-.588a3.872 3.872 0 0 1 1.445-.337c1.213 0 1.724.55 1.724 1.83v2.168c0 .395 0 .693.048 1.03h-.597z" fill-rule="nonzero"/></g><g fill="#fff"><path d="M41.548 42.007c-.423-.221-1.03-.29-1.503-.29-1.743 0-2.726 1.234-2.726 2.9 0 1.695.954 2.9 2.726 2.9.443 0 1.118-.058 1.503-.29l.039.578c-.366.222-1.117.29-1.542.29-2.119 0-3.39-1.397-3.39-3.478 0-2.042 1.31-3.477 3.39-3.477.395 0 1.195.067 1.542.25l-.039.617"/><path d="M45.71 47.736c1.06 0 1.627-.915 1.627-2.052 0-1.136-.568-2.052-1.628-2.052-1.059 0-1.628.916-1.628 2.052 0 1.137.569 2.052 1.628 2.052zm0-4.624c1.589 0 2.292 1.233 2.292 2.572s-.703 2.572-2.293 2.572c-1.589 0-2.292-1.233-2.292-2.572s.703-2.572 2.292-2.572z" fill-rule="nonzero"/><path d="M49.935 44.384c0-.376 0-.76-.038-1.156h.587v.876h.02c.202-.443.568-.992 1.589-.992 1.214 0 1.676.81 1.676 1.888v3.14h-.607v-2.986c0-.924-.327-1.522-1.165-1.522-1.108 0-1.455.973-1.455 1.792v2.716h-.607v-3.756M56.243 43.805h-.993v-.52h.993v-.356c0-1.03.038-2.07 1.3-2.07.193 0 .453.028.568.096l-.038.53a1.074 1.074 0 0 0-.482-.107c-.828 0-.742.896-.742 1.483v.424h1.108v.52h-1.108v4.393h-.606v-4.393"/><path d="M62.838 45.337c0-.857-.347-1.705-1.252-1.705-.896 0-1.445.896-1.445 1.705zm.3 2.65c-.425.173-.974.269-1.427.269-1.628 0-2.234-1.098-2.234-2.572 0-1.503.828-2.572 2.07-2.572 1.388 0 1.956 1.118 1.956 2.437v.309h-3.362c0 1.04.56 1.878 1.618 1.878.443 0 1.09-.183 1.378-.366zM67.23 47.678c1.08 0 1.455-1.156 1.455-2.052 0-.895-.376-2.051-1.454-2.051-1.156 0-1.455 1.098-1.455 2.051 0 .954.299 2.052 1.455 2.052zm2.062.404h-.607v-.78h-.019c-.328.626-.829.896-1.532.896-1.348 0-2.022-1.117-2.022-2.572 0-1.493.578-2.572 2.022-2.572.964 0 1.445.704 1.532.944h.019v-3.14h.607zM74.672 45.337c0-.857-.347-1.705-1.252-1.705-.896 0-1.445.896-1.445 1.705zm.299 2.65c-.424.173-.973.269-1.426.269-1.628 0-2.235-1.098-2.235-2.572 0-1.503.829-2.572 2.071-2.572 1.387 0 1.956 1.118 1.956 2.437v.309h-3.362c0 1.04.559 1.878 1.618 1.878.443 0 1.089-.183 1.378-.366z" fill-rule="nonzero"/><path d="M77.265 44.326c0-.54 0-.742-.038-1.098h.607v.943h.018c.222-.548.637-1.059 1.263-1.059.144 0 .318.03.423.058v.636a1.579 1.579 0 0 0-.443-.058c-.963 0-1.223 1.08-1.223 1.965v2.427h-.607v-3.814"/><path d="M83.748 45.664h-.174c-1.05 0-2.302.107-2.302 1.186 0 .645.463.886 1.021.886 1.425 0 1.455-1.243 1.455-1.773zm.058 1.687h-.02c-.27.587-.953.905-1.56.905-1.397 0-1.618-.944-1.618-1.387 0-1.647 1.753-1.724 3.024-1.724h.116v-.25c0-.839-.299-1.263-1.118-1.263-.51 0-.992.116-1.444.405v-.588a3.866 3.866 0 0 1 1.444-.337c1.214 0 1.725.55 1.725 1.83v2.168c0 .395 0 .693.048 1.03h-.597z" fill-rule="nonzero"/><path d="M86.243 47.515l2.957-3.883h-2.842v-.52h3.544v.52l-2.956 3.873h2.956v.52h-3.66v-.51"/><path d="M91.596 43.259h.607v4.912h-.607zm.607-1.31h-.607v-.809h.607z" fill-rule="nonzero"/><path d="M98.529 46.87c0 .375 0 .76.038 1.155h-.587v-.876h-.02c-.202.442-.568.991-1.589.991-1.213 0-1.676-.808-1.676-1.888v-3.14h.607v2.986c0 .925.328 1.523 1.166 1.523 1.107 0 1.454-.974 1.454-1.792v-2.717h.607v3.757M100.65 44.384c0-.376 0-.76-.038-1.156h.587v.876h.02c.202-.443.567-.992 1.589-.992 1.214 0 1.676.81 1.676 1.888v3.14h-.607v-2.986c0-.924-.327-1.522-1.165-1.522-1.108 0-1.455.973-1.455 1.792v2.716h-.607v-3.756M109.685 47.428c.367.183.81.308 1.282.308.578 0 1.088-.318 1.088-.877 0-1.165-2.36-.982-2.36-2.408 0-.973.79-1.339 1.599-1.339.26 0 .78.058 1.213.222l-.057.53a2.86 2.86 0 0 0-1.088-.232c-.627 0-1.06.193-1.06.819 0 .915 2.417.8 2.417 2.408 0 1.04-.973 1.397-1.714 1.397-.472 0-.944-.058-1.377-.231l.057-.597M116.233 48.025h-.712l-1.667-4.913h.665l1.358 4.248h.02l1.425-4.248h.636l-1.725 4.913"/><path d="M119.77 43.259h.608v4.912h-.607zm.608-1.31h-.607v-.809h.607z" fill-rule="nonzero"/><path d="M122.025 47.515l2.957-3.883h-2.842v-.52h3.545v.52l-2.957 3.873h2.957v.52h-3.66v-.51M127.698 44.326c0-.54 0-.742-.038-1.098h.607v.943h.02c.22-.548.635-1.059 1.261-1.059.144 0 .317.03.424.058v.636a1.58 1.58 0 0 0-.443-.058c-.964 0-1.224 1.08-1.224 1.965v2.427h-.607v-3.814"/><path d="M134.18 45.664h-.173c-1.05 0-2.303.107-2.303 1.186 0 .645.462.886 1.022.886 1.425 0 1.455-1.243 1.455-1.773zm.058 1.687h-.019c-.27.587-.954.905-1.56.905-1.397 0-1.618-.944-1.618-1.387 0-1.647 1.752-1.724 3.023-1.724h.117v-.25c0-.839-.3-1.263-1.119-1.263-.51 0-.992.116-1.444.405v-.588a3.86 3.86 0 0 1 1.444-.337c1.215 0 1.724.55 1.724 1.83v2.168c0 .395 0 .693.05 1.03h-.598z" fill-rule="nonzero"/></g></g></svg>

