<svg width="316" height="103" fill="none" xmlns="http://www.w3.org/2000/svg"><path d="M285.054 26.998h-1.565v-.544a1.428 1.428 0 00-.431-1.024 1.477 1.477 0 00-1.041-.424c-.391 0-.766.152-1.042.424s-.431.64-.431 1.024v.544h-7.272v-.544a1.412 1.412 0 00-.411-1.016 1.453 1.453 0 00-1.021-.432h-.04a1.376 1.376 0 00-.991.302c-.136.112-.249.25-.332.405a1.31 1.31 0 00-.15.741v.544h-1.473a2.895 2.895 0 00-2.032.856 2.81 2.81 0 00-.822 2.019V46.102c.006.767.318 1.5.869 2.043a2.99 2.99 0 002.077.854h16.108a2.99 2.99 0 002.077-.854 2.89 2.89 0 00.869-2.043V29.804a3.154 3.154 0 00-.961-1.922 3.255 3.255 0 00-1.985-.884zm.83 19.013a.804.804 0 01-.502.75.833.833 0 01-.314.065h-16.213a.838.838 0 01-.584-.233.808.808 0 01-.246-.57V32.249h17.854l.005 13.762z" fill="#9397CD"/><path d="M272.698 42.42a2.571 2.571 0 01-1.046-.262 2.528 2.528 0 01-.84-.665l-1.152 1.133c.39.466.89.83 1.456 1.064.565.234 1.18.328 1.792.276 2.304 0 3.562-1.236 3.562-2.782 0-.031.003-.062.004-.093a2.1 2.1 0 00-.592-1.515 2.173 2.173 0 00-1.508-.66 2.152 2.152 0 001.306-.751c.328-.398.497-.9.476-1.413 0-1.235-1.153-2.37-3.04-2.267a4.327 4.327 0 00-1.702.298 4.275 4.275 0 00-1.442.938l1.048 1.134a2.431 2.431 0 011.781-.825c.734 0 1.257.412 1.257 1.03 0 .825-.524 1.237-1.362 1.237h-.524l-.21 1.443h.734c.942 0 1.466.412 1.466 1.34a1.323 1.323 0 01-.48 1.034 1.366 1.366 0 01-.984.306zM280.87 44.07c2.305 0 3.563-1.752 3.563-4.844 0-3.092-1.257-4.74-3.563-4.74s-3.562 1.648-3.562 4.74c0 3.091 1.257 4.843 3.562 4.843zm.105-8.039c.838 0 1.257.722 1.257 3.195s-.315 3.194-1.257 3.194c-.838 0-1.256-.72-1.256-3.194s.313-3.195 1.256-3.195zM310.467 30.222c-.064 0-.128 0-.192.003a6.547 6.547 0 00-2.456-3.109 6.504 6.504 0 00-7.529.175 6.551 6.551 0 00-2.311 3.22 5.393 5.393 0 00-3.615 1.808 5.446 5.446 0 00.295 7.523 5.391 5.391 0 003.746 1.515h3.883v-2.56h-2.841l5.056-5.082 5.057 5.082h-2.924v2.56h-4.306v2.56h-2.925L304.462 49l5.056-5.083h-2.84v-2.56h4.031v-.005a5.53 5.53 0 003.797-1.759 5.588 5.588 0 00-.169-7.78 5.527 5.527 0 00-3.87-1.591zM293.911 3.436c.177-.581 1.001-.581 1.178 0l1.182 3.884c.059.196.213.35.409.41l3.884 1.181c.581.177.581 1 0 1.178l-3.884 1.182a.613.613 0 00-.409.41l-1.182 3.883c-.177.581-1.001.581-1.178 0l-1.182-3.884a.613.613 0 00-.409-.41l-3.884-1.181c-.581-.177-.581-1 0-1.178l3.884-1.182a.614.614 0 00.409-.41l1.182-3.883zM278.167 2.255c.092-.34.574-.34.666 0l.566 2.103a.346.346 0 00.243.243l2.103.566c.34.092.34.574 0 .666l-2.103.566a.346.346 0 00-.243.243l-.566 2.103c-.092.34-.574.34-.666 0l-.566-2.103a.346.346 0 00-.243-.243l-2.103-.566c-.34-.092-.34-.574 0-.666l2.103-.566a.346.346 0 00.243-.243l.566-2.103zM307.274 9.168a.236.236 0 01.452 0l.455 1.494a.237.237 0 00.157.157l1.494.455a.237.237 0 010 .452l-1.494.455a.237.237 0 00-.157.158l-.455 1.493a.236.236 0 01-.452 0l-.455-1.494a.237.237 0 00-.157-.157l-1.494-.455a.237.237 0 010-.452l1.494-.455a.237.237 0 00.157-.158l.455-1.493zM283.274 13.168a.236.236 0 01.452 0l.455 1.494a.237.237 0 00.157.157l1.494.455a.237.237 0 010 .452l-1.494.455a.237.237 0 00-.157.157l-.455 1.494a.236.236 0 01-.452 0l-.455-1.494a.237.237 0 00-.157-.157l-1.494-.455a.237.237 0 010-.452l1.494-.455a.237.237 0 00.157-.158l.455-1.493z" fill="#9397CD"/><path d="M285.054 79.998h-1.565v-.544a1.428 1.428 0 00-.431-1.024 1.477 1.477 0 00-1.041-.424c-.391 0-.766.152-1.042.424s-.431.64-.431 1.024v.544h-7.272v-.544a1.412 1.412 0 00-.411-1.016 1.453 1.453 0 00-1.021-.432h-.04a1.376 1.376 0 00-.991.302c-.136.112-.249.25-.332.405a1.31 1.31 0 00-.15.741v.544h-1.473a2.895 2.895 0 00-2.032.856 2.81 2.81 0 00-.822 2.019V99.102a2.9 2.9 0 00.869 2.043 2.99 2.99 0 002.077.854h16.108a2.99 2.99 0 002.077-.854 2.892 2.892 0 00.869-2.043V82.804a3.154 3.154 0 00-.961-1.922 3.255 3.255 0 00-1.985-.884zm.83 19.013a.804.804 0 01-.502.75.833.833 0 01-.314.065h-16.213a.838.838 0 01-.584-.233.808.808 0 01-.246-.57V85.249h17.854l.005 13.762z" fill="#3D4358"/><path d="M272.698 95.42a2.571 2.571 0 01-1.046-.261 2.528 2.528 0 01-.84-.666l-1.152 1.133c.39.466.89.83 1.456 1.064.565.234 1.18.328 1.792.276 2.304 0 3.562-1.236 3.562-2.782 0-.031.003-.062.004-.093a2.1 2.1 0 00-.592-1.515 2.173 2.173 0 00-1.508-.66 2.152 2.152 0 001.306-.751c.328-.398.497-.9.476-1.413 0-1.235-1.153-2.37-3.04-2.267a4.327 4.327 0 00-1.702.298 4.275 4.275 0 00-1.442.938l1.048 1.134a2.431 2.431 0 011.781-.825c.734 0 1.257.412 1.257 1.03 0 .825-.524 1.237-1.362 1.237h-.524l-.21 1.443h.734c.942 0 1.466.412 1.466 1.34a1.323 1.323 0 01-.48 1.034 1.366 1.366 0 01-.984.306zM280.87 97.07c2.305 0 3.563-1.752 3.563-4.844 0-3.092-1.257-4.74-3.563-4.74s-3.562 1.648-3.562 4.74c0 3.091 1.257 4.843 3.562 4.843zm.105-8.039c.838 0 1.257.722 1.257 3.195s-.315 3.194-1.257 3.194c-.838 0-1.256-.72-1.256-3.194s.313-3.195 1.256-3.195zM310.467 83.222c-.064 0-.128 0-.192.003a6.547 6.547 0 00-2.456-3.109 6.504 6.504 0 00-7.529.175 6.551 6.551 0 00-2.311 3.22 5.393 5.393 0 00-3.615 1.808 5.446 5.446 0 00.295 7.523 5.391 5.391 0 003.746 1.515h3.883v-2.56h-2.841l5.056-5.082 5.057 5.082h-2.924v2.56h-4.306v2.56h-2.925l5.057 5.083 5.056-5.083h-2.84v-2.56h4.031v-.005a5.53 5.53 0 003.797-1.759 5.588 5.588 0 00-.169-7.78 5.527 5.527 0 00-3.87-1.591zM293.911 56.436c.177-.581 1.001-.581 1.178 0l1.182 3.884c.059.196.213.35.409.41l3.884 1.181c.581.177.581 1 0 1.178l-3.884 1.182a.613.613 0 00-.409.41l-1.182 3.883c-.177.581-1.001.581-1.178 0l-1.182-3.884a.613.613 0 00-.409-.41l-3.884-1.181c-.581-.177-.581-1 0-1.178l3.884-1.182a.613.613 0 00.409-.41l1.182-3.883zM278.167 55.255c.092-.34.574-.34.666 0l.566 2.103a.346.346 0 00.243.243l2.103.566c.34.092.34.574 0 .666l-2.103.566a.346.346 0 00-.243.243l-.566 2.103c-.092.34-.574.34-.666 0l-.566-2.103a.346.346 0 00-.243-.243l-2.103-.566c-.34-.092-.34-.574 0-.666l2.103-.566a.346.346 0 00.243-.243l.566-2.103zM307.274 62.168a.236.236 0 01.452 0l.455 1.493a.237.237 0 00.157.158l1.494.455a.237.237 0 010 .452l-1.494.455a.237.237 0 00-.157.157l-.455 1.494a.236.236 0 01-.452 0l-.455-1.493a.237.237 0 00-.157-.158l-1.494-.455a.237.237 0 010-.452l1.494-.455a.237.237 0 00.157-.158l.455-1.493zM283.274 66.168a.236.236 0 01.452 0l.455 1.493a.237.237 0 00.157.158l1.494.455a.237.237 0 010 .452l-1.494.455a.237.237 0 00-.157.157l-.455 1.494a.236.236 0 01-.452 0l-.455-1.493a.237.237 0 00-.157-.158l-1.494-.455a.237.237 0 010-.452l1.494-.455a.237.237 0 00.157-.157l.455-1.494z" fill="#3D4358"/><path d="M24.94 48.46s10.98-5.45 15.2-11.8c4.24-6.37 3.4-22.73 3.4-24.54 0-1.81.84-5.45.84-5.45s-5.08 0-9.3-.9C30.85 4.84 24.94 1.2 24.94 1.2S19.02 4.84 14.8 5.75c-4.23.9-9.3.9-9.3.9s.84 3.64.84 5.46c0 1.82-.84 18.17 3.4 24.53 4.2 6.36 15.2 11.8 15.2 11.8v.02z" stroke="#9397CD" stroke-width="2" stroke-miterlimit="10"/><path d="M23 16h4v16h-4V16zm-6 6h16v4H17v-4z" fill="#9397CD"/><path d="M91 41c0 1.66-1.34 3-3 3H70c-1.66 0-3-1.34-3-3V22c0-1.66 1.34-3 3-3h18c1.66 0 3 1.34 3 3v19z" stroke="#9397CD" stroke-width="2" stroke-miterlimit="10"/><path d="M87.5 16v-5.76s-.98-4.5-8.5-4.5c-7.5 0-8.5 5.25-8.5 5.25v5" stroke="#9397CD" stroke-width="3" stroke-miterlimit="10"/><path d="M78.5 31a2.5 2.5 0 100-5 2.5 2.5 0 000 5z" fill="#9397CD"/><path d="M80 34c0 .55-.67 1-1.5 1s-1.5-.45-1.5-1v-4c0-.55.67-1 1.5-1s1.5.45 1.5 1v4zm-19-7h3v8h-3v-8zm0 14.45l-6.22-10.5L61 20.48v20.97zM94 27h3v8h-3v-8zm3-5.98l6.22 10L97 41V21.02z" fill="#9397CD"/><path d="M91 94c0 1.66-1.34 3-3 3H70c-1.66 0-3-1.34-3-3V75c0-1.66 1.34-3 3-3h18c1.66 0 3 1.34 3 3v19z" stroke="#3D4358" stroke-width="2" stroke-miterlimit="10"/><path d="M87.5 69v-5.76s-.98-4.5-8.5-4.5c-7.5 0-8.5 5.25-8.5 5.25v5" stroke="#3D4358" stroke-width="3" stroke-miterlimit="10"/><path d="M78.5 84a2.5 2.5 0 100-5 2.5 2.5 0 000 5z" fill="#1A171B"/><path d="M80 87c0 .55-.67 1-1.5 1s-1.5-.45-1.5-1v-4c0-.55.67-1 1.5-1s1.5.45 1.5 1v4z" fill="#1A171B"/><path d="M61 80h3v8h-3v-8zm0 14.45l-6.22-10.5L61 73.48v20.97zM94 80h3v8h-3v-8zm3-5.98l6.22 10L97 94V74.02z" fill="#3D4358"/><path d="M117.45 39.7l14.98-14.97m16.45-.21c4.6-4.6 4.6-12.05 0-16.64-4.6-4.6-12.06-4.6-16.65 0-3.5 3.5-4.33 8.63-2.5 12.9l-3.12 3.12-3.22.1-.74 4.26-3.34-.02-.86 4.14-3.38-.05-.33 3.22-2.73 2.5V45h7.12l17.44-17.6c4.16 1.5 8.98.45 12.3-2.88h.01z" stroke="#9397CD" stroke-width="2" stroke-miterlimit="10"/><path d="M142.424 16.853a2.943 2.943 0 100-5.886 2.943 2.943 0 000 5.886z" stroke="#9397CD" stroke-width="2" stroke-miterlimit="10"/><path d="M117.45 92.7l14.98-14.97m16.45-.21c4.6-4.6 4.6-12.05 0-16.64s-12.06-4.6-16.65 0c-3.5 3.5-4.33 8.63-2.5 12.9l-3.12 3.12-3.22.1-.74 4.26-3.34-.02-.86 4.14-3.38-.05-.33 3.22-2.73 2.5V98h7.12l17.44-17.6c4.16 1.5 8.98.45 12.3-2.88h.01z" stroke="#3D4358" stroke-width="2" stroke-miterlimit="10"/><path d="M142.424 69.852a2.943 2.943 0 100-5.887 2.943 2.943 0 000 5.887z" stroke="#3D4358" stroke-width="2" stroke-miterlimit="10"/><path d="M206.3 10.06c1.17 1.18-3.07 11.56-4.24 12.73L179.43 45.4a3 3 0 01-4.24 0l-10.62-10.6a3.012 3.012 0 010-4.25L187.2 7.94c1.18-1.17 11.56-5.4 12.74-4.24l6.36 6.36z" stroke="#9397CD" stroke-width="2" stroke-miterlimit="10"/><path d="M176.49 37.101l-5.258-5.258 3.604-3.604.89.89-2.543 2.542 1.244 1.245 2.195-2.195.89.89-2.195 2.194 2.234 2.235-1.061 1.061zM180.977 32.614l-5.258-5.258 2.234-2.234c.562-.562 1.018-.922 1.367-1.08.349-.163.721-.2 1.115-.111.395.088.747.288 1.058.599.395.394.605.837.631 1.327.024.488-.161.996-.555 1.524a3.444 3.444 0 011.007-.125c.311.01.798.092 1.46.247l1.668.384-1.27 1.27-1.911-.377c-.682-.136-1.125-.207-1.331-.211a1.118 1.118 0 00-.538.1c-.153.072-.352.23-.595.473l-.216.216 2.195 2.195-1.061 1.061zm-1.973-4.096l.786-.785c.509-.51.805-.849.889-1.019a.803.803 0 00.075-.52.964.964 0 00-.287-.502c-.177-.177-.367-.271-.57-.283-.203-.017-.405.046-.606.19-.098.074-.362.326-.793.757l-.828.828 1.334 1.334zM186.281 27.31l-5.258-5.258 3.899-3.9.89.89-2.837 2.837 1.165 1.166 2.64-2.64.886.886-2.64 2.64 1.431 1.431 2.938-2.938.886.886-4 4zM191.181 22.41l-5.258-5.258 3.899-3.899.889.89-2.837 2.837 1.166 1.165 2.64-2.64.885.887-2.639 2.64 1.431 1.43 2.937-2.937.886.886-3.999 4z" fill="#9397CD"/><path d="M197.106 14.186a2 2 0 100-4 2 2 0 000 4z" stroke="#9397CD" stroke-width="2" stroke-miterlimit="10"/><path d="M206.3 63.06c1.17 1.18-3.07 11.56-4.24 12.73L179.43 98.4a3 3 0 01-4.24 0l-10.62-10.6a3.012 3.012 0 010-4.25l22.63-22.63c1.18-1.17 11.56-5.4 12.74-4.24l6.36 6.36v.02z" stroke="#3D4358" stroke-width="2" stroke-miterlimit="10"/><path d="M176.49 90.103l-5.258-5.259 3.604-3.604.89.89-2.543 2.542 1.244 1.245 2.195-2.195.89.89-2.195 2.194 2.234 2.235-1.061 1.062zM180.977 85.615l-5.258-5.258 2.234-2.234c.562-.562 1.018-.922 1.367-1.08.349-.162.721-.2 1.115-.111.395.088.747.288 1.058.599.395.395.605.837.631 1.327.024.488-.161.996-.555 1.524a3.444 3.444 0 011.007-.125c.311.01.798.092 1.46.247l1.668.384-1.27 1.27-1.911-.377c-.682-.136-1.125-.207-1.331-.211a1.118 1.118 0 00-.538.1c-.153.072-.352.23-.595.474l-.216.215 2.195 2.195-1.061 1.061zm-1.973-4.096l.786-.785c.509-.51.805-.849.889-1.019a.803.803 0 00.075-.52.964.964 0 00-.287-.502c-.177-.177-.367-.271-.57-.283-.203-.017-.405.046-.606.19-.098.074-.362.326-.793.757l-.828.828 1.334 1.334zM186.281 80.31l-5.258-5.257 3.899-3.9.89.89-2.837 2.837 1.165 1.166 2.64-2.64.886.886-2.64 2.64 1.431 1.431 2.938-2.937.886.885-4 4zM191.181 75.411l-5.258-5.258 3.899-3.899.889.89-2.837 2.837 1.166 1.166 2.64-2.64.885.886-2.639 2.64 1.431 1.43 2.937-2.937.886.886-3.999 4z" fill="#3D4358"/><path d="M197.106 67.186a2 2 0 100-4 2 2 0 000 4z" stroke="#3D4358" stroke-width="2" stroke-miterlimit="10"/><path d="M230.5 23.5S234 22 235 20s2-4 5-5 5-1 7-5 2-5 2-5 2-1 3 3 0 7-2 9-1 4 1 4 9 2 9 4-1 3-1 3 1 0 1 2-3 4-3 4 1 1 1 3-2 3-2 3-1 1-1 2-5 6-12 4-8-3-12-3m-1 0c0 1.66-1.34 3-3 3h-7c-1.66 0-3-1.34-3-3V24c0-1.66 1.34-3 3-3h7c1.66 0 3 1.34 3 3v19z" stroke="#9397CD" stroke-width="2" stroke-miterlimit="10"/><path d="M230.5 75.5S234 74 235 72s2-4 5-5 5-1 7-5 2-5 2-5 2-1 3 3 0 7-2 9-1 4 1 4 9 2 9 4-1 3-1 3 1 0 1 2-3 4-3 4 1 1 1 3-2 3-2 3-1 1-1 2-5 6-12 4-8-3-12-3m-1 0c0 1.66-1.34 3-3 3h-7c-1.66 0-3-1.34-3-3V76c0-1.66 1.34-3 3-3h7c1.66 0 3 1.34 3 3v19zM24.94 101.46s10.98-5.45 15.2-11.8c4.24-6.37 3.4-22.73 3.4-24.54 0-1.81.84-5.45.84-5.45s-5.08 0-9.3-.9c-4.23-.92-10.14-4.56-10.14-4.56s-5.92 3.65-10.14 4.56c-4.23.9-9.3.9-9.3.9s.84 3.64.84 5.46c0 1.82-.84 18.17 3.4 24.53 4.2 6.36 15.2 11.8 15.2 11.8v0z" stroke="#3D4358" stroke-width="2" stroke-miterlimit="10"/><path d="M23 69h4v16h-4V69zm-6 6h16v4H17v-4z" fill="#3D4358"/></svg>